<?xml version="1.0" encoding="UTF-8" standalone="no"?>
<!-- Created with Inkscape (http://www.inkscape.org/) -->

<svg
   xmlns:dc="http://purl.org/dc/elements/1.1/"
   xmlns:cc="http://creativecommons.org/ns#"
   xmlns:rdf="http://www.w3.org/1999/02/22-rdf-syntax-ns#"
   xmlns:svg="http://www.w3.org/2000/svg"
   xmlns="http://www.w3.org/2000/svg"
   xmlns:sodipodi="http://sodipodi.sourceforge.net/DTD/sodipodi-0.dtd"
   xmlns:inkscape="http://www.inkscape.org/namespaces/inkscape"
   width="647.05798"
   height="500"
   id="svg3116"
   version="1.1"
   inkscape:version="0.92.1 r15371"
   sodipodi:docname="12_ninos lluvia jugando ajedrez_By_DG-RA.svg"
   viewBox="0 0 606.61686 468.75">
  <defs
     id="defs3118" />
  <sodipodi:namedview
     id="base"
     pagecolor="#ffffff"
     bordercolor="#666666"
     borderopacity="1.0"
     inkscape:pageopacity="0.0"
     inkscape:pageshadow="2"
     inkscape:zoom="0.63773148"
     inkscape:cx="257.05011"
     inkscape:cy="160.98729"
     inkscape:document-units="in"
     inkscape:current-layer="layer1"
     showgrid="false"
     inkscape:window-width="1280"
     inkscape:window-height="748"
     inkscape:window-x="-8"
     inkscape:window-y="-8"
     inkscape:window-maximized="1"
     inkscape:snap-global="false"
     showguides="true"
     inkscape:guide-bbox="true" />
  <metadata
     id="metadata3121">
    <rdf:RDF>
      <cc:Work
         rdf:about="">
        <dc:format>image/svg+xml</dc:format>
        <dc:type
           rdf:resource="http://purl.org/dc/dcmitype/StillImage" />
        <dc:title />
      </cc:Work>
    </rdf:RDF>
  </metadata>
  <g
     inkscape:groupmode="layer"
     id="layer3"
     inkscape:label="FONDO"
     sodipodi:insensitive="true">
    <path
       style="opacity:1;vector-effect:none;fill:#00ff00;fill-opacity:1;fill-rule:evenodd;stroke:none;stroke-width:1.84584618;stroke-linecap:butt;stroke-linejoin:miter;stroke-miterlimit:4;stroke-dasharray:none;stroke-dashoffset:0;stroke-opacity:1;paint-order:normal"
       d="M 606.61688,2.6089479e-6 V 468.75 H -1.7640991e-5 V 2.6089479e-6 Z"
       id="rect4763"
       inkscape:connector-curvature="0" />
  </g>
  <g
     inkscape:label="Capa 1"
     inkscape:groupmode="layer"
     id="layer1"
     transform="translate(0,-583.61218)">
    <g
       transform="matrix(0.87638832,0,0,-0.87638828,-42.810572,1069.1543)"
       id="g5204">
      <path
         d="m 405.18,171.422 c -0.551,-0.02 -1.098,-0.656 -1.098,-1.75 0,-0.504 -0.23,-0.824 -0.66,-0.938 -0.852,-0.222 -0.676,-1.168 0.238,-1.3 0.524,-0.075 0.742,-0.391 0.891,-1.282 0.254,-1.492 -0.395,-3.371 -2.078,-6.039 -1.586,-2.511 -2.602,-5.031 -2.332,-5.777 0.113,-0.313 0.613,-0.93 1.109,-1.371 0.844,-0.742 0.934,-1.051 1.23,-4.32 0.18,-1.938 0.321,-3.754 0.321,-4.04 0,-0.402 -0.531,-0.593 -2.321,-0.859 -1.273,-0.191 -2.406,-0.246 -2.519,-0.121 -0.113,0.125 -0.559,1.258 -0.988,2.52 -0.672,1.972 -0.727,2.398 -0.371,3.039 0.546,0.984 0.535,1.707 -0.032,2.8 -0.968,1.875 -3.382,2.036 -5.226,0.352 -1.422,-1.297 -1.457,-2.305 -0.153,-4.313 l 0.821,-1.269 -0.91,-1.688 c -0.707,-1.312 -1.055,-1.652 -1.5,-1.511 -0.317,0.101 -1.039,0.027 -1.61,-0.16 -1.269,-0.418 -5.742,-0.696 -6.238,-0.391 -0.199,0.125 -0.418,0.766 -0.492,1.43 -0.16,1.484 0.461,2.32 2.019,2.703 0.821,0.199 1.289,0.582 1.75,1.429 0.793,1.461 0.43,2.754 -0.957,3.411 -0.523,0.246 -1,0.574 -1.062,0.726 -0.059,0.156 -0.637,0.551 -1.278,0.883 -0.644,0.328 -1.566,1.043 -2.05,1.59 -1.028,1.152 -1.528,1.234 -2.309,0.367 -0.504,-0.555 -0.637,-0.57 -1.25,-0.168 -0.383,0.25 -1.02,0.371 -1.41,0.27 -0.598,-0.157 -0.711,-0.411 -0.711,-1.559 0,-1.102 -0.223,-1.645 -1.121,-2.723 -0.617,-0.738 -1.211,-1.687 -1.32,-2.117 -0.188,-0.754 0.027,-3.273 0.421,-4.883 0.18,-0.738 0.141,-0.769 -1.199,-0.59 -0.765,0.106 -1.629,0.071 -1.922,-0.089 -0.293,-0.157 -1.023,-0.383 -1.621,-0.5 -1.433,-0.278 -10.383,-0.418 -10.789,-0.168 -0.172,0.105 -0.359,1.597 -0.418,3.308 -0.097,2.922 -0.062,3.149 0.61,3.621 0.875,0.614 0.906,1.399 0.121,2.961 -0.641,1.27 -1.59,4.25 -1.973,6.227 -0.18,0.945 -0.098,1.379 0.371,1.972 0.754,0.954 0.77,2.465 0.039,3.34 -0.84,1.004 -2.933,1.227 -3.93,0.418 -0.738,-0.601 -0.781,-0.812 -0.707,-3.258 0.086,-2.859 -0.433,-5.183 -1.742,-7.781 -0.75,-1.488 -0.758,-1.578 -0.23,-2.398 0.304,-0.469 0.742,-0.973 0.972,-1.11 0.477,-0.285 0.594,-5.855 0.137,-6.589 -0.191,-0.317 -0.875,-0.395 -2.558,-0.301 -2.407,0.137 -2.743,0.328 -3.09,1.859 -0.102,0.442 -0.344,1.137 -0.539,1.539 -0.278,0.567 -0.231,1.067 0.191,2.242 0.297,0.829 0.539,1.774 0.539,2.098 -0.004,0.91 -1.176,2.348 -2.211,2.711 -0.785,0.273 -1.097,0.207 -1.949,-0.422 -1.977,-1.457 -2.34,-2.613 -1.481,-4.66 0.403,-0.957 0.368,-1.188 -0.441,-2.969 -0.926,-2.043 -1.391,-2.398 -3.199,-2.429 -2.102,-0.036 -2.434,0.207 -3.039,2.21 -0.371,1.231 -0.485,2.18 -0.321,2.782 0.137,0.496 0.274,1.668 0.29,2.609 0.031,1.512 -0.079,1.805 -0.911,2.52 -1.765,1.519 -4.543,0.382 -5.199,-2.133 -0.113,-0.43 -0.043,-1.574 0.16,-2.539 0.34,-1.61 0.305,-1.899 -0.41,-3.457 l -0.777,-1.703 h -4.141 c -4.023,0 -4.144,0.023 -4.332,0.722 -0.484,1.809 -0.222,2.778 1.043,3.918 1.141,1.031 1.215,1.211 1.008,2.321 -0.441,2.386 -1.582,3.8 -2.93,3.64 -0.562,-0.066 -1.558,1.238 -1.558,2.039 0,0.274 -0.512,1.504 -1.129,2.731 l -1.121,2.23 h 0.769 c 0.602,0 0.793,0.203 0.899,0.93 0.109,0.742 -0.036,1.031 -0.731,1.437 -0.566,0.336 -0.933,0.883 -1.066,1.614 -0.133,0.699 -0.438,1.183 -0.832,1.308 -1.004,0.317 -1.332,-0.109 -1.11,-1.429 0.192,-1.133 0.137,-1.235 -0.91,-1.731 -0.609,-0.289 -1.254,-0.531 -1.429,-0.531 -0.391,0 -0.102,-1.262 0.3,-1.32 0.157,-0.02 0.422,-0.075 0.598,-0.118 0.176,-0.047 0.598,-0.097 0.941,-0.121 0.618,-0.039 0.614,-0.058 -0.011,-1.879 -0.344,-1.011 -0.899,-2.422 -1.227,-3.132 -0.332,-0.708 -0.769,-1.899 -0.973,-2.649 -0.253,-0.953 -0.593,-1.445 -1.128,-1.648 -1.309,-0.5 -1.735,-3.43 -0.7,-4.832 0.207,-0.278 0.91,-0.762 1.559,-1.071 1.254,-0.59 2.223,-2.324 1.449,-2.59 -0.344,-0.117 -5.769,-0.476 -10.816,-0.75 h 42.527 c -0.23,0.211 -0.215,0.563 -0.102,1.172 0.29,1.551 1.102,3.086 1.45,2.739 0.152,-0.153 0.496,-1.18 0.75,-2.278 l 0.371,-1.633 h 10.199 c -0.344,0.582 -0.531,2.168 -0.492,4.411 0.051,2.711 0.18,3.39 0.633,3.351 0.203,-0.019 0.547,-0.055 0.769,-0.082 0.469,-0.055 0.738,-7.101 0.328,-7.68 h 20.739 c -0.258,0.469 -0.414,1.231 -0.629,2.512 -0.512,3.074 -0.336,3.735 1.48,5.699 0.219,0.239 0.399,0.641 0.399,0.891 0,0.551 0.16,0.563 1.043,0.09 0.566,-0.305 0.761,-0.246 1.238,0.34 0.566,0.695 0.574,0.695 1.461,0.09 0.492,-0.336 1.515,-0.997 2.269,-1.469 0.754,-0.473 1.278,-1.004 1.168,-1.18 -0.109,-0.18 -0.742,-0.543 -1.418,-0.812 -2.265,-0.907 -3.316,-3.246 -2.59,-5.778 0.043,-0.148 0.067,-0.265 0.09,-0.383 h 13.098 c 0.129,0.403 0.543,1.165 1.23,2.231 0.711,1.098 1.332,1.777 1.403,1.531 0.066,-0.242 0.355,-1.23 0.636,-2.191 0.204,-0.68 0.36,-1.266 0.422,-1.571 h 17.457 l -1.414,0.727 -1.785,1.066 -0.258,1.079 c -0.265,1.132 -0.386,2.5 -0.472,5.351 -0.039,1.363 0.097,1.848 0.672,2.457 0.683,0.731 0.679,1.004 0.007,2.07 -1.418,2.254 -3.117,7.336 -3.339,10 -0.176,2.129 -0.165,2.161 0.613,2.161 1.078,0 1.094,1.191 0.019,1.461 -0.523,0.128 -0.824,0.496 -0.949,1.14 -0.164,0.801 -0.594,1.156 -1.023,1.137 z m -52.364,-8.598 c 0.02,0.004 0.047,0 0.067,0 0.027,-0.004 0.055,-0.011 0.082,-0.019 0.219,-0.075 0.363,-0.258 0.32,-0.422 -0.148,-0.535 -0.719,-0.52 -0.719,0.019 0,0.227 0.102,0.391 0.25,0.422 z m 52.114,-3.051 c 0.386,0.004 0.781,-0.605 1.39,-1.949 0.375,-0.82 0.825,-1.765 1,-2.09 0.176,-0.324 0.246,-0.652 0.16,-0.738 -0.085,-0.09 -1.332,-0.242 -2.777,-0.34 l -2.64,-0.183 0.23,0.91 c 0.125,0.5 0.508,1.293 0.848,1.773 0.339,0.477 0.621,0.969 0.621,1.078 0,0.11 0.234,0.555 0.519,0.989 0.203,0.312 0.387,0.5 0.571,0.543 0.023,0.004 0.054,0.007 0.078,0.007 z m -52.157,-2.058 c 0.09,0.019 0.145,-0.074 0.2,-0.27 0.078,-0.265 0.453,-1.418 0.832,-2.562 0.375,-1.141 0.683,-2.254 0.679,-2.477 -0.004,-0.301 -0.566,-0.386 -2.078,-0.32 -2.316,0.098 -2.332,0.137 -1.082,2.48 0.328,0.614 0.602,1.34 0.602,1.618 0,0.277 0.207,0.777 0.457,1.121 0.187,0.254 0.305,0.39 0.39,0.41 z m -41.918,-0.242 c 0.063,0.015 0.106,-0.008 0.141,-0.067 0.152,-0.242 0.277,-0.972 0.281,-1.621 0.004,-0.648 0.153,-1.273 0.328,-1.379 0.708,-0.437 0.25,-1.008 -1.027,-1.293 -1.183,-0.261 -1.387,-0.433 -1.57,-1.359 -0.36,-1.793 -0.692,-1.609 -0.442,0.25 0.266,1.976 1.723,5.336 2.289,5.469 z m 93.188,-4.149 1.379,-0.101 1.379,-0.098 0.199,-2.398 c 0.113,-1.321 0.289,-3.571 0.402,-5 l 0.207,-2.602 -0.886,-0.121 c -0.489,-0.063 -1.192,-0.074 -1.571,-0.02 -0.832,0.121 -0.937,0.789 -1.039,6.403 z m -62.789,-1.289 c 0.469,-0.019 0.832,-0.601 0.609,-1.48 -0.14,-0.567 -0.414,-0.789 -0.988,-0.789 -0.863,0 -1.023,0.578 -0.461,1.629 0.25,0.46 0.563,0.648 0.84,0.64 z m -29.906,-0.031 c 0.031,0.004 0.058,0.004 0.09,0 0.3,-0.027 0.601,-0.313 0.871,-0.867 0.23,-0.485 0.679,-0.93 1,-0.992 0.656,-0.125 1.816,0.781 1.816,1.429 0,0.594 0.523,0.547 0.762,-0.07 0.383,-0.996 0.183,-1.582 -0.739,-2.109 -1.082,-0.614 -1.402,-1.762 -1.222,-4.348 0.066,-0.926 0.109,-1.684 0.101,-1.692 -0.011,-0.007 -0.609,-0.097 -1.332,-0.191 -1.117,-0.141 -1.379,-0.047 -1.797,0.59 -0.269,0.414 -0.582,1.191 -0.703,1.73 -0.156,0.719 -0.59,1.192 -1.566,1.743 -1.559,0.871 -2.141,1.386 -2.141,1.898 0,0.238 0.25,0.281 0.719,0.121 0.395,-0.137 1.137,-0.254 1.648,-0.262 0.809,-0.011 0.981,0.137 1.231,1.102 0.32,1.219 0.789,1.879 1.262,1.918 z m 17.539,-0.02 c 0.14,0.008 0.281,-0.011 0.429,-0.07 0.618,-0.234 0.711,-1.828 0.141,-2.398 -0.512,-0.512 -1.055,-0.485 -1.519,0.078 -0.739,0.886 -0.028,2.344 0.949,2.39 z m 65.195,-0.668 c 0.316,-0.003 0.539,-0.312 0.469,-0.921 -0.047,-0.434 -0.352,-1.043 -0.668,-1.36 -0.504,-0.508 -0.625,-0.527 -0.969,-0.109 -0.316,0.379 -0.285,0.676 0.129,1.48 0.312,0.61 0.723,0.91 1.039,0.91 z m -65.445,-4.429 c 0.207,-0.035 0.332,-0.434 0.461,-1.192 0.136,-0.836 0.254,-1.66 0.257,-1.82 0.008,-0.328 -1.464,-0.453 -2.218,-0.191 -0.434,0.152 -0.403,0.336 0.179,1.421 0.668,1.247 1.055,1.821 1.321,1.782 z"
         style="fill:#00ff00;fill-opacity:1;fill-rule:nonzero;stroke:none"
         id="path4601"
         inkscape:connector-curvature="0" />
      <path
         d="m 55.723,549.215 c -0.082,-0.008 -0.184,-0.027 -0.282,-0.059 -1.14,-0.379 -6.207,-26.539 -5.406,-27.906 1.168,-1.988 2.805,2.668 4.567,12.973 2.097,12.242 2.355,15.101 1.121,14.992 z m 523.226,-5.074 c -0.953,-0.262 -1.301,-3.645 -0.898,-9.383 0.363,-5.121 0.902,-7.735 1.543,-7.512 1.004,0.356 1.109,15.563 0.113,16.559 -0.285,0.285 -0.539,0.398 -0.758,0.336 z m -360.023,-0.168 c -1.434,0 -1.906,-2.668 -1.906,-11.094 v -8.293 L 206.035,521.59 C 163.875,510.105 125.414,492.695 99.57,473.371 91.383,467.246 81.641,458.047 81.641,456.449 c 0,-1.754 3.461,-3.34 4.816,-2.215 2.082,1.727 8.191,2.047 20.426,1.063 19.355,-1.551 30.961,-5.356 45.726,-14.902 6.493,-4.2 6.625,-4.235 10.504,-3.196 2.164,0.578 4.059,0.93 4.203,0.785 0.149,-0.148 -1.097,-4.496 -2.773,-9.668 -1.676,-5.168 -3.262,-10.503 -3.531,-11.851 l -0.504,-2.465 -4.313,2.664 c -13.812,8.496 -40.64,13.145 -54.832,9.496 -10.894,-2.801 -24.207,-10.465 -24.207,-13.926 0,-1.382 1.293,-1.644 10.535,-2.156 5.793,-0.32 13.157,-0.984 16.364,-1.484 7.285,-1.137 26.035,-5.364 27.625,-6.219 0.816,-0.445 -0.7,-2.199 -4.934,-5.66 -8.469,-6.93 -24.156,-23.211 -29.223,-30.344 -9.273,-13.062 -14.32,-26.949 -17.285,-47.433 -2.207,-15.247 -1.363,-42.129 1.793,-57.098 2.758,-13.082 4.989,-19.434 6.949,-19.809 1.051,-0.203 2.075,1.391 3.782,5.828 1.289,3.352 3.726,8.504 5.406,11.457 2.75,4.821 3.094,5.141 3.477,3.137 0.234,-1.223 0.925,-4.863 1.511,-8.066 2.457,-13.399 10.77,-28.883 20.063,-37.375 6.75,-6.172 16.136,-10.547 30.539,-14.207 6.722,-1.707 13.668,-3.715 15.437,-4.453 4.602,-1.922 6.453,-1.711 7.086,0.812 l 0.563,2.156 3.781,-1.679 c 2.094,-0.926 6.086,-1.946 8.852,-2.27 l 5.046,-0.59 -4.121,-8.179 c -6.132,-12.219 -11.39,-26.481 -14.933,-40.571 -3.61,-14.367 -8.492,-42.785 -8.852,-51.441 l -0.254,-5.824 6.528,-0.899 c 5.839,-0.804 6.664,-1.176 8.125,-3.586 0.898,-1.48 3.832,-3.863 6.5,-5.297 2.672,-1.429 4.976,-2.683 5.129,-2.8 0.152,-0.118 -0.754,-1.258 -2.016,-2.52 -2.652,-2.652 -2.816,-4.133 -0.926,-7.789 1.649,-3.187 4.027,-3.883 11.711,-3.391 4.981,0.317 5.809,0.172 5.465,-1.007 -0.223,-0.766 -3.496,-9.454 -7.258,-19.305 -3.766,-9.852 -6.629,-18.426 -6.387,-19.055 0.309,-0.804 2.786,-1.148 8.461,-1.148 6.883,0 8.098,0.226 8.489,1.57 0.25,0.863 1.699,8.227 3.222,16.363 5.012,26.782 4.184,24.207 7.703,24.207 h 3.082 V 51.512 c 0,-10.172 0.344,-14.942 1.094,-15.692 1.223,-1.218 10.207,-1.472 10.926,-0.308 0.262,0.422 -0.426,7.64 -1.539,16.054 l -2.047,15.297 2.633,0.395 c 2.605,0.383 2.687,0.215 12.133,-18.996 l 9.527,-19.36 4.984,-0.254 c 6.332,-0.335 10.016,0.918 9.164,3.137 -0.339,0.879 -5.16,9.336 -10.73,18.801 -5.574,9.465 -10.145,17.394 -10.145,17.625 0,0.227 2.118,0.707 4.707,1.035 2.59,0.328 5.313,0.734 6.051,0.926 0.848,0.219 3.012,-1.953 5.828,-5.856 2.465,-3.418 4.989,-6.234 5.606,-6.25 0.683,-0.015 1.121,-1.265 1.121,-3.222 0,-4.481 3.758,-8.086 9.246,-8.906 2.273,-0.344 8.891,-0.485 14.707,-0.309 11.938,0.359 15.199,1.578 18.941,7.086 1.657,2.441 2.02,3.914 1.68,7.004 -0.781,7.148 -6.351,11.765 -14.148,11.769 -3.848,0 -4.192,0.2 -5.688,3.364 -3.637,7.679 -11.652,18.445 -16.613,22.3 -5.07,3.938 -5.074,3.973 -6.223,10.786 -0.629,3.761 -2.347,11.64 -3.781,17.511 l -2.605,10.676 2.019,2.715 c 1.188,1.613 2.547,2.504 3.359,2.242 0.75,-0.242 3.047,-1.055 5.129,-1.82 2.68,-0.985 4.43,-1.157 5.996,-0.559 2.61,0.992 4.469,4.047 3.864,6.36 -0.242,0.937 0.117,1.839 0.871,2.128 0.98,0.375 1.64,0.528 2.101,0.418 l 4.903,2.301 1.457,2.969 c 1.359,2.746 1.496,3.98 0.758,6.668 -1.047,3.789 -4.973,7.461 -8.883,8.32 l -2.719,0.59 1.766,3.473 c 0.972,1.906 1.554,4.015 1.289,4.707 -0.594,1.543 -20.375,10.371 -34.797,15.523 -5.867,2.094 -11.004,4.336 -11.403,4.985 -0.562,0.906 1.403,1.636 8.43,3.113 11.254,2.359 21.18,5.762 25.805,8.824 6.93,4.582 12.48,16.063 14.121,29.277 0.461,3.692 1.711,8.418 2.773,10.508 1.067,2.086 1.696,4.137 1.43,4.567 -0.266,0.429 -2.359,1.449 -4.68,2.242 -2.316,0.789 -5.343,2.515 -6.722,3.836 -2.356,2.254 -2.524,2.836 -2.524,9.89 0,6.528 0.301,7.887 2.16,10.368 5.391,7.187 11.04,21.894 11.907,30.929 0.41,4.274 0.863,5.543 1.793,5.184 3.359,-1.289 12.132,-8.102 16.25,-12.606 6.277,-6.867 7.597,-6.523 8.433,2.239 0.762,7.996 -0.492,25.89 -2.492,35.586 -4.894,23.691 -14.137,41.101 -29.559,55.753 -14.707,13.969 -34.039,23.938 -55.39,28.547 -10.027,2.168 -35.133,2.129 -43.934,-0.054 -3.359,-0.832 -6.535,-1.512 -7.058,-1.512 -1.516,0 -0.102,6.629 2.773,12.973 l 2.578,5.687 8.852,0.672 c 16.066,1.23 34.855,-2.039 52.59,-9.133 l 7.929,-3.168 5.66,2.27 c 10.45,4.183 20.004,6.195 31.661,6.64 15.406,0.59 26.207,-1.843 43.285,-9.777 l 7.789,-3.613 7.957,2.687 c 11.492,3.91 21.019,5.645 31.547,5.688 5.086,0.023 9.371,-0.106 9.527,-0.282 0.156,-0.171 17.449,-48.984 38.41,-108.453 l 38.106,-108.121 -0.813,-4.847 c -1.828,-10.676 -4.695,-22.063 -6.359,-25.356 -2.453,-4.848 -1.363,-5.601 10.898,-7.703 5.582,-0.957 10.239,-1.879 10.336,-2.02 0.102,-0.136 2.02,-5.492 4.262,-11.906 3.715,-10.636 4.035,-12.211 3.641,-17.929 -0.411,-5.915 -0.278,-6.497 2.324,-10.059 3.285,-4.496 7.32,-6.754 11.965,-6.754 1.867,0 3.39,-0.09 3.39,-0.195 0,-0.106 -2.074,-3.992 -4.593,-8.629 -4.418,-8.113 -14.43,-29.281 -16.926,-35.778 -0.66,-1.726 -1.492,-3.554 -1.875,-4.062 -1.5,-2.004 1.105,-3.227 11.375,-5.41 12.523,-2.66 37.234,-6.664 41.269,-6.668 2.504,0 3.008,-0.473 4.707,-4.426 1.047,-2.434 1.903,-4.551 1.907,-4.707 0,-0.156 -3.59,-0.129 -7.989,0.027 -12.277,0.442 -16.226,-2.625 -16.218,-12.578 0.007,-11.894 10.582,-17.761 31.824,-17.679 12.316,0.046 14.633,0.957 17.707,7.031 3.277,6.469 3.359,12.301 0.226,16.027 -1.867,2.219 -2.242,3.602 -2.242,8.266 v 5.601 l 4.707,-0.558 c 2.59,-0.313 8.176,-0.555 12.41,-0.563 l 7.707,-0.027 1.739,-6.555 c 1.703,-6.383 1.722,-6.621 0.109,-9.191 -1.199,-1.914 -1.562,-3.86 -1.316,-7.113 0.48,-6.364 2.746,-10.536 7.031,-12.946 3.406,-1.914 4.414,-2.004 16.336,-1.652 14.429,0.422 19.461,1.945 24.851,7.508 2.621,2.703 3.043,3.785 3.364,8.769 0.437,6.922 -1.114,10.461 -5.52,12.551 -3.324,1.578 -11.437,1.848 -18.746,0.645 l -4.258,-0.7 v 8.543 l 6.949,0.535 c 22.278,1.758 31.653,2.821 40.739,4.622 1.312,0.261 2.617,1.113 2.914,1.878 1.183,3.09 -4.973,24.329 -11.715,40.457 -3.082,7.375 -3.547,9.161 -2.324,8.797 4.59,-1.363 6.566,-1.484 9.89,-0.589 7.618,2.05 12.434,8.656 13.336,18.324 0.891,9.523 -2.605,16.082 -10.449,19.722 -2.238,1.039 -4.062,2.454 -4.062,3.141 0,1.57 -0.95,2.078 -10.313,5.629 -4.191,1.594 -7.016,2.996 -6.273,3.113 0.738,0.113 3.976,0.449 7.199,0.754 5.765,0.547 5.902,0.621 8.715,4.766 1.57,2.312 3.476,6.422 4.23,9.133 l 1.371,4.929 -0.222,-8.515 -0.227,-8.52 4.934,0.254 c 4.543,0.227 23.629,3.25 27.035,4.285 1.965,0.598 3.094,3.656 5.183,13.84 4.282,20.859 4.957,28.805 4.961,58.277 0,29.598 -0.644,37.02 -5.015,56.934 -5.676,25.848 -15.864,51.141 -28.356,70.379 -19.183,29.543 -57.25,44.793 -111.957,44.828 -30.258,0.019 -57.808,-11.496 -78.98,-33.004 -17.121,-17.394 -28.028,-39.617 -32.391,-66.012 -0.891,-5.39 -1.879,-9.375 -2.184,-8.879 -1.382,2.239 -39.265,113.481 -38.804,113.946 0.289,0.285 4.297,-0.965 8.937,-2.801 l 8.461,-3.336 6.11,3.082 c 20.074,10.098 38.574,11.176 57.937,3.418 l 6.699,-2.66 4.481,2.129 c 6.207,2.969 19.047,6.492 27.347,7.48 8.95,1.067 18.473,-0.113 28.942,-3.586 l 8.125,-2.691 7.703,2.242 c 19.645,5.691 35.336,4.941 52.086,-2.465 l 4.82,-2.129 8.348,4.008 c 11.289,5.422 19.344,8.137 27.625,9.301 11.391,1.598 29.238,-0.699 35.891,-4.625 3.171,-1.867 4.652,-1.656 4.652,0.676 0,1.91 -8.77,12.515 -15.551,18.797 -47.777,44.269 -127.117,73.507 -225.625,83.156 -26.332,2.578 -46.269,3.433 -80.242,3.418 -46.25,-0.02 -77.801,-2.071 -115.656,-7.453 -16.696,-2.371 -51.778,-8.895 -55.532,-10.336 -1.214,-0.469 -1.398,0.707 -1.398,8.965 0,5.23 -0.348,9.496 -0.785,9.496 z m 168.047,-4.539 c 27.84,0.156 55.578,-0.871 80.636,-3.11 87.536,-7.812 161.903,-31.984 210.969,-68.531 10.035,-7.473 27.551,-24.625 24.375,-23.871 -7.422,1.766 -16.058,2.488 -25.101,2.101 -11.586,-0.492 -17.727,-2.191 -32.305,-8.964 l -8.52,-3.95 -4.031,1.739 c -8.035,3.465 -20.43,6.035 -29,6.023 -8.008,-0.012 -20.793,-2.168 -27.793,-4.68 -3.23,-1.16 -3.973,-1.086 -10.308,1.149 -18.028,6.355 -36.684,5.351 -57.633,-3.11 l -5.239,-2.101 -5.55,2.242 c -8.766,3.539 -21.618,5.867 -28.969,5.266 -8.695,-0.711 -19.234,-3.625 -28.129,-7.789 -4.137,-1.934 -7.77,-3.5 -8.07,-3.473 -0.301,0.023 -3.516,1.246 -7.145,2.715 -23.277,9.43 -44.648,10.199 -67.969,2.469 l -8.433,-2.774 -6.024,2.742 c -17.882,8.18 -26.918,10.426 -41.886,10.368 -12.75,-0.047 -19.953,-1.317 -32.922,-5.77 l -7.871,-2.691 -8.688,3.25 c -18.453,6.914 -30.773,8.937 -49.953,8.211 -13.121,-0.5 -21.953,-1.719 -35.078,-4.793 l -6.332,-1.457 -8.32,5.015 c -15.625,9.418 -28.039,12.906 -49.395,13.899 l -12.973,0.586 7.145,5.773 c 43.992,35.465 119.785,60.613 209.316,69.484 25.418,2.516 53.356,3.879 81.196,4.032 z m 327.523,-6.274 c -0.238,-0.055 -0.48,-0.219 -0.699,-0.449 -0.82,-0.871 0.383,-18.684 1.371,-20.285 0.328,-0.528 0.863,-0.539 1.348,-0.055 0.847,0.848 -0.43,19.676 -1.403,20.649 -0.148,0.148 -0.375,0.195 -0.617,0.14 z M 89.148,523.242 c -0.207,0.004 -0.457,-0.234 -0.73,-0.672 -0.32,-0.523 -0.813,-11.859 -1.121,-25.187 -0.484,-21.184 -0.387,-24.238 0.785,-24.238 1.148,0 1.414,3.578 1.906,24.406 0.442,18.676 0.27,25.656 -0.84,25.691 z M 700.18,501.836 c -0.926,0 -1.114,-17.324 -0.196,-18.238 1.282,-1.282 2.059,1.918 2.075,8.543 0.011,7.097 -0.493,9.695 -1.879,9.695 z m -515.407,-60.32 c 0.329,0.015 0.54,-0.012 0.586,-0.059 0.184,-0.184 -0.464,-2.227 -1.457,-4.539 -2.589,-6.039 -4.23,-15.52 -2.914,-16.836 0.778,-0.777 3.617,-0.516 11.571,1.063 29.429,5.843 57.824,0.187 83.187,-16.586 28.113,-18.59 42.531,-46.875 44.125,-86.516 l 0.531,-13 -3.808,3.445 c -2.098,1.891 -7.203,5.649 -11.348,8.348 -6.969,4.543 -7.535,5.152 -7.535,7.93 0,6.101 -2.648,16.777 -5.129,20.703 -2.281,3.617 -3.84,4.965 -3.809,3.281 0.004,-0.371 0.762,-3.094 1.68,-6.055 2.488,-8 3.985,-20.515 3.391,-28.242 -0.563,-7.265 -3.828,-18.535 -7.231,-24.988 l -2.07,-3.953 -1.961,7.847 c -2.445,9.746 -5.523,16.579 -12.16,26.922 -6.574,10.242 -12.16,16.278 -12.16,13.141 0,-0.422 2.695,-5.164 5.968,-10.535 9.407,-15.442 11.047,-18.567 11.067,-21.067 0.016,-2.648 -5.617,-20.242 -6.895,-21.519 -0.507,-0.508 -3.632,1.347 -8.039,4.82 -14.179,11.172 -34.55,22.785 -40.851,23.281 l -2.942,0.227 -0.558,-8.742 c -1.071,-16.407 -3.492,-25.535 -10.059,-37.879 -4.16,-7.82 -10.883,-17.485 -12.16,-17.485 -0.422,0 -2.797,1.918 -5.266,4.258 -3.511,3.328 -5.867,7.059 -10.816,16.981 -6.008,12.043 -8.207,15.398 -8.207,12.605 0,-2.574 3.016,-11.207 5.937,-17.004 1.672,-3.316 3.028,-6.261 3.028,-6.558 0,-0.293 -0.91,-0.453 -2.02,-0.364 -4.875,0.395 -7.094,-0.211 -9.804,-2.632 -2.59,-2.313 -2.915,-3.114 -2.915,-7.454 0,-5.925 3.29,-13.179 8.18,-18.07 2.238,-2.238 3.723,-4.816 4.485,-7.789 1.05,-4.113 0.976,-4.918 -1.176,-10.73 -1.281,-3.453 -2.602,-6.227 -2.914,-6.192 -0.313,0.035 -2.176,0.649 -4.149,1.371 -1.972,0.723 -8.426,2.524 -14.343,4.008 -5.918,1.481 -13.786,4.172 -17.485,5.996 -12.172,6 -21.773,18.145 -27.457,34.711 -2.137,6.235 -2.473,8.613 -2.519,18.156 -0.032,6.039 -0.278,10.985 -0.563,10.985 -1.758,0.004 -9.297,-11.324 -13.84,-20.789 l -2.886,-5.969 -0.954,3.277 c -4.832,16.774 -6.679,40.907 -4.621,60.071 2.227,20.711 7.961,37.422 17.539,51.019 5.504,7.813 23.871,26.184 32.891,32.891 3.848,2.863 6.852,5.648 6.672,6.195 -0.715,2.137 -33.149,9.18 -47.297,10.281 l -8.516,0.672 4.063,2.438 c 9.297,5.551 18.543,7.261 32.137,5.996 15.293,-1.426 29.789,-6.207 36.925,-12.215 4.149,-3.492 5.336,-2.191 8.153,8.937 1.316,5.2 3.562,11.797 4.961,14.68 l 2.519,5.238 5.746,1.149 c 2.367,0.469 4.496,0.789 5.492,0.844 z m 219.04,-8.239 c 1.597,0.094 4.566,-0.648 5.632,-1.711 0.555,-0.55 21.856,-61.472 47.321,-135.378 43.101,-125.102 46.187,-134.461 44.714,-135.579 -0.867,-0.656 -1.796,-1.191 -2.046,-1.203 -0.309,-0.015 -90.305,254.399 -96.629,273.172 -0.149,0.43 0.281,0.656 1.008,0.699 z m 165.164,-13.785 c 12.187,-0.066 26.812,-0.789 33.562,-1.906 28.856,-4.762 48.211,-13.344 63.461,-28.129 16.398,-15.902 31.953,-50.086 39.195,-86.207 3.664,-18.27 4.493,-28.199 4.426,-52.449 -0.062,-23.762 -1.195,-36.512 -4.93,-55.141 -2.308,-11.508 -2.429,-11.836 -4.148,-12.496 -1.43,-0.547 -22.262,-4.09 -24.066,-4.09 -0.579,0 -0.957,2.852 -0.981,7.399 -0.035,7.429 -3.144,21.609 -4.984,22.75 -1.852,1.14 -2.735,-1.594 -3.082,-9.668 -0.418,-9.617 -2.094,-16.266 -5.016,-19.809 -1.957,-2.367 -2.461,-2.48 -12.355,-2.941 -11.739,-0.547 -10.106,-1.11 -25.329,8.769 -9.304,6.039 -10.828,7.844 -6.64,7.844 2.672,0 14.023,3.156 21.406,5.941 8,3.02 16.246,8.465 19.274,12.719 2.347,3.297 2.664,3.43 6.558,3.055 5.031,-0.485 8.215,1.855 11.961,8.742 4.602,8.449 2.879,18.613 -3.922,23.172 -2.281,1.527 -3.933,1.988 -6.051,1.652 -2.746,-0.437 -2.914,-0.324 -2.914,2.211 0,4.824 -2.847,22.688 -4.117,25.778 -0.898,2.183 -1.64,2.839 -2.691,2.437 -1.461,-0.559 -18.969,-3.668 -24.262,-4.316 l -2.859,-0.364 -0.477,4.989 c -0.269,2.742 -0.758,8.011 -1.062,11.711 -2.028,24.457 -9.231,44.804 -24.125,68.222 -6.75,10.613 -7.672,10.465 -1.848,-0.308 14.32,-26.493 22.891,-56.61 22.891,-80.383 0,-4.352 -0.082,-4.477 -2.914,-4.957 -4.461,-0.758 -23.45,-2.059 -24.208,-1.653 -0.371,0.196 -0.671,4.809 -0.671,10.223 0,9.078 -0.297,10.723 -3.645,21.016 -1.996,6.14 -4.039,11.148 -4.539,11.148 -0.5,0 -0.668,-0.699 -0.391,-1.566 3.864,-12.172 6.688,-41.442 4.004,-41.496 -0.683,-0.012 -10.941,-0.395 -22.777,-0.868 -11.832,-0.472 -24.02,-0.613 -27.094,-0.308 l -5.574,0.562 -1.707,4.594 c -2.461,6.606 -4.496,17.188 -5.211,27.234 l -0.617,8.711 -2.129,-4.648 c -3.09,-6.777 -4.356,-17.961 -3.168,-27.738 0.531,-4.367 0.867,-8.039 0.758,-8.153 -0.41,-0.425 -30.422,2.457 -30.934,2.969 -0.289,0.289 -0.512,8.055 -0.504,17.258 0.016,12.519 0.399,18.531 1.571,23.898 2.82,12.93 7.238,24.887 14.316,38.86 3.832,7.566 6.949,13.984 6.949,14.261 0,1.602 -4.379,-3.976 -9.301,-11.824 -12.804,-20.41 -19.652,-48.426 -17.933,-73.402 l 0.617,-8.938 -4.848,0.586 c -2.664,0.332 -7.867,1.051 -11.57,1.571 l -6.723,0.925 -4.82,13.895 -4.82,13.898 1.008,8.938 c 3.586,31.523 13.441,54.062 32.109,73.461 16.512,17.156 38.094,28.414 60.797,31.715 3.344,0.484 9.777,0.683 17.094,0.644 z m 161.714,-26.336 c -0.05,0.016 -0.113,-0.011 -0.168,-0.027 -0.828,-0.277 -1.191,-4.586 -1.371,-16.645 -0.214,-14.093 -0.062,-16.304 1.118,-16.304 1.175,0 1.375,2.347 1.375,16.672 0,12.121 -0.207,16.093 -0.954,16.304 z m -675.5,-4.285 c -1.14,0 -1.343,-2.207 -1.343,-14.625 0,-8.055 0.285,-14.914 0.613,-15.242 1.742,-1.742 2.074,0.703 2.074,14.625 0,12.949 -0.203,15.242 -1.344,15.242 z m 599.825,-36.058 c -0.036,0 -0.063,-0.008 -0.082,-0.032 -0.211,-0.207 1.574,-4.242 3.976,-8.965 8.727,-17.14 11.195,-26.214 14.879,-54.55 1.242,-9.563 2.973,-21.836 3.836,-27.258 l 1.57,-9.863 0.282,9.863 c 0.312,10.855 -0.762,23.461 -3.559,41.242 -2.246,14.281 -5.188,24.629 -9.219,32.555 -3.054,6.008 -10.597,16.941 -11.683,17.008 z m -434.27,-48.247 9.078,-4.57 c 10.125,-5.078 21.012,-12.211 31.125,-20.394 3.699,-2.993 7.18,-5.457 7.735,-5.465 1.539,-0.024 2.523,1.621 5.324,8.855 l 2.578,6.641 1.344,-3.055 c 0.867,-1.976 1.504,-7.402 1.82,-15.465 l 0.477,-12.441 3.082,-2.578 c 1.699,-1.418 4.472,-3.035 6.136,-3.586 2.297,-0.758 2.852,-1.34 2.383,-2.465 -1.433,-3.418 -2.133,-6.336 -3.113,-13.027 -2.039,-13.942 -7.645,-23.114 -16.527,-27.008 -6.036,-2.649 -20.391,-6.281 -31.411,-7.957 -19.472,-2.965 -50.41,-2.324 -58.386,1.203 l -3.981,1.766 1.375,3.277 c 1.578,3.781 1.754,7.332 0.504,10.617 -0.851,2.246 -0.781,2.293 2.914,2.301 4.731,0.004 9.043,3.086 8.574,6.105 l -0.308,2.02 -3.309,-2.27 c -3.961,-2.707 -6.488,-2.832 -10.254,-0.535 -8.386,5.113 -13.355,19.465 -7.957,23.004 3.34,2.188 11.168,1.043 14.012,-2.047 3.113,-3.387 8.91,-7.453 10.617,-7.453 2.11,0 9.945,10.684 15.156,20.652 6.383,12.204 8.555,20.184 10.481,38.719 z m 502.184,-2.664 c -0.938,-0.207 -1.149,-2.086 -1.149,-9.246 0,-5.093 0.274,-9.515 0.59,-9.832 1.527,-1.531 2.102,1.156 2.102,9.723 0,7.723 -0.235,9.355 -1.348,9.355 -0.066,0 -0.133,0.016 -0.195,0 z M 529.5,283.691 c 0.02,0.008 0.051,-0.043 0.082,-0.168 1.957,-7.656 5.234,-15.832 6.641,-16.585 6.316,-3.383 94.535,1.945 117.422,7.089 l 3.445,0.754 0.98,-5.492 c 0.539,-3.019 1.457,-10.23 2.047,-16.023 0.586,-5.793 1.449,-10.536 1.93,-10.536 0.484,0 2.199,0.481 3.812,1.067 3.95,1.426 7.204,-0.094 8.911,-4.176 1.898,-4.543 1.578,-8.476 -1.067,-13.785 -3.086,-6.191 -5.383,-7.731 -9.832,-6.5 -3.836,1.059 -4.73,0.594 -7.539,-3.949 -5.355,-8.664 -25.703,-16.696 -49.758,-19.641 -30.094,-3.687 -58.969,-1.965 -81.922,4.902 -22.605,6.762 -25.859,10.305 -27.093,29.532 -0.395,6.164 -1.121,12.504 -1.598,14.09 -0.477,1.589 -1.16,7.941 -1.512,14.121 l -0.617,11.238 2.578,-0.449 c 4.539,-0.785 23.024,-2.239 28.465,-2.242 h 5.238 l -0.504,9.191 c -0.238,4.422 -0.273,7.516 -0.109,7.562 z m -60.406,-11.375 h 2.883 c 4.461,0 5.046,-1.207 5.046,-10.476 0,-4.586 -0.304,-8.328 -0.675,-8.324 -0.368,0.004 -2.137,4.242 -3.95,9.414 z m 11.515,-1.148 2.465,-0.363 c 6.703,-1.032 6.266,-0.407 6.918,-9.442 0.332,-4.566 1.145,-11.953 1.824,-16.39 0.676,-4.438 1.504,-12.106 1.821,-17.035 0.383,-5.942 1.172,-10.387 2.379,-13.196 2.203,-5.121 8.257,-10.894 13.953,-13.336 7.054,-3.023 21.691,-7.09 31.578,-8.769 l 9.414,-1.598 -11.574,-6.863 c -6.364,-3.781 -12.196,-6.836 -12.969,-6.781 -0.777,0.054 -5.668,0.636 -10.844,1.289 -5.179,0.652 -9.914,1.199 -10.535,1.23 -0.84,0.047 -0.992,1.598 -0.617,6.109 0.519,6.27 -0.309,11.086 -2.016,11.657 -0.543,0.179 -1.683,-1.739 -2.523,-4.262 -0.836,-2.52 -1.664,-4.441 -1.848,-4.258 -0.183,0.188 -4.187,11.543 -8.883,25.246 l -8.543,24.907 z M 250.922,259.68 c -0.125,-0.008 -0.262,-0.032 -0.395,-0.055 -2.304,-0.437 -2.804,-6.215 -0.726,-8.293 2.023,-2.023 3.996,-0.344 3.976,3.391 -0.015,3.398 -0.996,5.09 -2.855,4.957 z m 362.769,-4.539 c -0.605,-0.016 -1.222,-0.379 -1.793,-1.149 -1.503,-2.023 -1.71,-7.91 -0.363,-10.422 1.414,-2.644 4.067,-2.129 5.379,1.039 1.856,4.485 -0.601,10.602 -3.223,10.532 z m -81.082,-2.102 -1.793,-2.098 c -2.171,-2.562 -2.363,-7.894 -0.394,-10.703 0.769,-1.097 1.75,-1.992 2.187,-1.992 1.582,0 3.586,4.074 3.586,7.285 0,1.985 -0.711,4.129 -1.793,5.41 z M 60.961,245.223 c -0.047,0.007 -0.113,-0.008 -0.168,-0.028 -0.797,-0.265 -1.191,-3.574 -1.371,-11.457 -0.141,-6.097 -0.051,-11.601 0.195,-12.246 0.246,-0.644 0.863,-1.176 1.375,-1.176 0.59,0 0.922,4.559 0.922,12.637 0,9.094 -0.215,12.16 -0.953,12.27 z m 216.492,-20.844 c -0.965,0.051 -2.441,-0.41 -4.426,-1.371 -3.933,-1.906 -4.589,-2.668 -3.39,-3.867 1.699,-1.703 9.246,1.199 9.246,3.558 0,1.059 -0.465,1.629 -1.43,1.68 z m 305.082,-7.871 c -0.672,0.019 -1.41,-0.199 -2.015,-0.703 -0.758,-0.625 -3.336,-1.184 -5.747,-1.231 -4.839,-0.101 -5.89,-0.656 -5.097,-2.719 1.191,-3.105 14.933,-0.554 14.933,2.774 0,1.133 -0.957,1.84 -2.074,1.879 z M 476.992,208.66 c 0.481,0 9.047,-24.051 9.024,-25.328 -0.016,-0.781 -0.727,-0.746 -6.754,0.336 -9.114,1.641 -8.578,1.289 -7.254,5.074 0.644,1.844 1.91,7.067 2.828,11.625 0.918,4.563 1.894,8.293 2.156,8.293 z M 238.09,197.203 c 2.199,0.32 6.73,-7.879 14.707,-26.644 8.172,-19.231 15.301,-43.844 19.391,-66.879 l 0.558,-3.223 -11.488,-1.934 c -6.324,-1.074 -15.75,-2.593 -20.926,-3.359 -9.203,-1.367 -55.691,-2.457 -65.676,-1.543 -5.199,0.477 -5.105,-0.43 -1.961,19.949 4.68,30.317 10.41,50.43 20.258,70.996 l 5.434,11.289 18.941,0.563 c 10.43,0.293 19.774,0.641 20.762,0.785 z m 367.336,-5.773 3.027,-3.364 c 14.379,-15.914 35.09,-47.125 44.352,-66.82 8.617,-18.332 16.656,-43.812 14.289,-45.277 -1.254,-0.774 -12.59,-2.364 -25.555,-3.586 -10.059,-0.945 -47.512,-1.742 -57.828,-1.231 -14.027,0.696 -40.375,3.137 -52.449,4.875 -14.106,2.032 -34.653,6.067 -35.582,6.977 -0.801,0.785 10.953,26.488 18.101,39.586 6.61,12.117 19.239,31.949 29.949,47.07 4.192,5.918 9.129,12.977 10.985,15.692 l 3.359,4.929 15.301,-0.281 c 8.402,-0.16 19.059,0.09 23.672,0.563 z m -356.438,-0.867 c 2.836,-0.059 35.778,-13.477 37.739,-15.438 0.531,-0.531 -6.575,-14.375 -12.579,-24.516 -2.996,-5.054 -5.71,-9.191 -6.054,-9.191 -0.34,0 -1.153,1.918 -1.793,4.262 -1.946,7.133 -8.942,25.238 -13.559,35.105 -2.402,5.129 -4.176,9.524 -3.949,9.75 0.023,0.028 0.102,0.028 0.195,0.028 z m 367.196,-4.426 c 0.507,0.011 2.379,-1.274 5.519,-3.391 8.645,-5.836 23.223,-13.473 31.942,-16.726 3.699,-1.383 7.035,-2.758 7.421,-3.082 0.391,-0.329 -0.843,-3.86 -2.773,-7.848 -1.926,-3.985 -4.242,-9.996 -5.125,-13.363 -0.883,-3.364 -1.84,-6.391 -2.129,-6.723 -0.293,-0.336 -2.148,2.262 -4.121,5.769 -5.43,9.668 -16.543,26.247 -23.953,35.723 -5.348,6.84 -7.52,9.617 -6.781,9.641 z m -66.094,-0.336 -4.426,-6.278 c -2.434,-3.449 -8.586,-12.429 -13.699,-19.949 -5.117,-7.519 -9.473,-13.672 -9.668,-13.672 -1.172,0 -11.207,15.657 -11.207,17.485 0,0.539 2.254,2.09 5.015,3.445 4.856,2.379 23.067,12.469 30.399,16.836 z m -47.91,-9.219 1.992,-0.504 c 1.094,-0.269 5.113,-0.754 8.937,-1.094 3.821,-0.339 6.95,-0.875 6.946,-1.175 0,-0.305 -3.219,-2.192 -7.145,-4.204 l -7.144,-3.671 z m -446.989,-4.68 c -0.742,0 -1.339,-0.504 -1.343,-1.121 -0.008,-0.617 -0.621,-6.367 -1.348,-12.777 -0.723,-6.41 -1.305,-13.367 -1.316,-15.465 -0.02,-4.012 1.445,-5.23 2.156,-1.793 0.379,1.82 3.211,28.863 3.195,30.484 -0.004,0.372 -0.605,0.672 -1.344,0.672 z m 683.766,-2.015 c -0.508,-0.043 -1.082,-0.75 -1.344,-1.739 -0.754,-2.808 -0.734,-17.312 0.028,-18.07 1.367,-1.367 1.925,1.227 2.211,10.113 0.207,6.356 -0.016,9.438 -0.7,9.664 -0.07,0.024 -0.121,0.036 -0.195,0.032 z m -507.453,-1.571 c -1.57,-0.226 -1.203,-2.234 1.289,-7.816 1.93,-4.32 7.539,-18.922 7.539,-19.613 0,-0.114 -1.516,-0.715 -3.363,-1.317 -1.852,-0.601 -5.196,-2.05 -7.453,-3.222 -3.543,-1.836 -14.235,-4.715 -17.653,-4.762 -1.593,-0.023 -1.461,11.262 0.254,21.098 1.082,6.214 1.153,8.031 0.281,8.57 -0.613,0.379 -1.406,0.504 -1.765,0.281 -1.465,-0.902 -2.867,-11.355 -2.942,-21.91 l -0.086,-11.207 3.364,-0.277 c 2.176,-0.184 3.359,-0.719 3.359,-1.543 0,-3.067 3.16,-8.789 5.746,-10.422 2.192,-1.387 3.848,-1.676 7.899,-1.344 11.269,0.914 16.726,8.551 12.804,17.93 -1.711,4.093 -1.699,4.176 0.477,4.176 3.062,0 3.129,2.714 0.226,11.179 -4.144,12.071 -8.011,20.199 -9.613,20.199 -0.121,0 -0.258,0.016 -0.363,0 z m 55.84,-3.586 c 2.469,0 6.875,-2.062 7.703,-3.613 0.484,-0.902 0.871,-2.883 0.871,-4.402 0,-2.152 -0.645,-3.152 -2.914,-4.535 -1.606,-0.981 -4.238,-1.793 -5.856,-1.793 -3.539,-0.008 -4.664,-2.028 -2.464,-4.457 0.847,-0.938 1.273,-2.137 0.949,-2.66 -0.844,-1.368 -4.977,-1.098 -7.926,0.503 -2.332,1.262 -2.422,1.532 -1.262,3.332 0.692,1.079 3.149,5.465 5.493,9.782 2.339,4.312 4.781,7.843 5.406,7.843 z m 220.386,-4.343 2.715,-4.762 c 1.5,-2.629 4.293,-6.859 6.223,-9.414 3.469,-4.598 3.508,-4.672 1.961,-7.031 -0.859,-1.313 -2.52,-2.778 -3.699,-3.223 -5.496,-2.09 -11.524,0.512 -14.176,6.106 -2.281,4.8 -0.598,11.679 3.781,15.523 z m 157.739,-2.242 c 0.273,0.003 0.578,-0.063 0.922,-0.168 4.015,-1.2 7.386,-3.653 9.164,-6.696 3.828,-6.554 1.004,-19.593 -5.043,-23.281 -1.75,-1.066 -4.453,-1.797 -6.559,-1.766 -4.273,0.063 -9.414,2.426 -9.414,4.313 0,2.848 3.922,15.207 6.809,21.492 2.211,4.813 2.929,6.09 4.121,6.106 z m -365.321,-14.707 -3.503,-0.45 h -5.352 c -0.59,-0.55 -0.754,-2.277 -0.754,-6.5 v -6.722 h 52.895 l 0.226,-48.192 0.223,-48.191 10.984,-0.25 10.981,-0.254 v 96.855 l 27.121,0.254 27.121,0.223 v 12.555 l -12.777,0.25 -12.774,0.254 c 0,0.027 0,0.054 0,0.082 h -3.559 c -0.007,-0.047 -0.023,-0.09 -0.027,-0.141 h -60.969 c 0,0.047 0,0.094 0,0.141 h -4.312 c -0.051,-0.086 -0.113,-0.141 -0.168,-0.141 -0.082,0 -0.149,0.066 -0.227,0.141 h -7.925 c -1.766,-0.098 -4.325,-0.141 -7.989,-0.141 -4.652,0 -7.492,0.051 -9.215,0.227 z m -6.023,-3.813 h 121.93 v -6.273 h -121.93 z m -58.895,-4.566 c 0.059,0.004 0.094,-0.004 0.114,-0.028 1.207,-1.375 3.191,-6.453 3.191,-8.152 0,-2.969 -2.426,-6.055 -5.91,-7.508 -3.488,-1.461 -8.215,-1.586 -10.449,-0.281 -1.883,1.094 -4.258,5.437 -4.258,7.789 0,1.309 1.258,2.043 5.602,3.25 3.082,0.855 6.945,2.383 8.574,3.391 1.426,0.878 2.73,1.515 3.136,1.539 z m 112.239,-5.743 h 14.344 l 0.226,-45.949 0.25,-45.949 H 347.02 l 0.226,45.949 z M 82.254,101.969 c -0.891,0 -1.461,-3.563 -2.27,-14.371 -0.589,-7.918 -0.816,-14.817 -0.504,-15.325 1.305,-2.109 2.094,1.219 3,12.633 1.239,15.567 1.223,17.063 -0.226,17.063 z M 275.406,96.59 c 2.801,0 11.645,-9.438 16.336,-17.453 2.305,-3.934 4.176,-7.407 4.176,-7.703 0,-0.301 -4.949,-2.61 -11.012,-5.157 -6.062,-2.547 -11.207,-4.636 -11.429,-4.625 -0.227,0.016 -2.102,2.383 -4.176,5.243 -3.164,4.355 -3.742,5.793 -3.613,9.019 0.128,3.238 -0.27,4.215 -2.469,6.109 -2.375,2.043 -3.106,2.2 -8.039,1.68 -24.84,-2.621 -46.66,-4.16 -52.196,-3.672 -6.64,0.59 -15.718,4.094 -18.129,7.008 -0.675,0.816 -1.082,1.496 -0.894,1.512 0.184,0.015 9.41,0.195 20.508,0.39 21.105,0.372 34.89,1.704 56.312,5.438 7.051,1.226 13.621,2.211 14.625,2.211 z m 453.996,-6.809 c -0.468,-0.035 -0.984,-4.461 -1.148,-13.222 -0.195,-10.485 -0.004,-13.215 0.898,-12.914 0.856,0.285 1.149,3.574 1.149,13.082 0,8.75 -0.43,13.093 -0.899,13.054 z M 253.863,79.277 c 4.567,0.098 7.086,-0.906 7.086,-2.859 0,-1.781 -0.644,-1.895 -30.031,-4.48 -14.301,-1.262 -28.223,-2.52 -30.934,-2.805 -4.945,-0.52 -6.273,-0.094 -6.273,1.992 0,2.906 7.566,3.961 58.078,8.039 0.734,0.059 1.422,0.098 2.074,0.113 z m 296.789,-9.582 5.098,-0.476 c 2.809,-0.27 6.813,-0.699 8.91,-0.953 l 3.809,-0.477 v -4.875 c 0,-2.68 -0.301,-4.824 -0.672,-4.762 -0.367,0.059 -3.293,0.496 -6.5,0.953 -3.203,0.458 -6.074,1.11 -6.387,1.458 -0.312,0.343 -1.394,2.531 -2.41,4.875 z M 244.141,67.902 c 1.668,-0.015 3.714,-2.957 11.879,-17.062 5.425,-9.375 10.007,-17.453 10.171,-17.934 0.164,-0.476 -1.371,-0.867 -3.418,-0.867 h -3.726 l -8.461,17.426 c -4.648,9.574 -8.461,17.644 -8.461,17.933 0,0.286 0.906,0.512 2.016,0.504 z m 59.648,-0.14 c 5.633,0.086 8.899,-1.875 10.145,-6.024 1.379,-4.609 0.089,-8.027 -3.926,-10.449 -2.403,-1.457 -4.789,-1.769 -14.539,-1.906 -6.41,-0.09 -12.461,0.043 -13.449,0.308 -4.653,1.243 -6.586,6.645 -3.364,9.414 2.852,2.446 17.5,7.958 22.582,8.489 0.907,0.094 1.746,0.156 2.551,0.168 z M 607.5,67.004 c 0.805,0.008 1.711,0 2.773,0 h 7.762 l -0.562,-3.359 c -0.305,-1.852 -0.555,-4 -0.559,-4.793 -0.008,-1.051 -1.187,-1.59 -4.289,-1.961 -2.34,-0.282 -4.969,-0.789 -5.828,-1.121 -1.664,-0.645 -1.762,-0.469 -3.305,5.406 -1.363,5.207 -1.633,5.769 4.008,5.828 z M 228.508,66.109 c 0.586,0 3.777,-22.718 3.754,-26.671 -0.008,-1.176 -2.836,-1.54 -3.867,-0.508 -0.856,0.859 -0.75,27.179 0.113,27.179 z M 212.93,65.07 c 0.941,-0.015 0.746,-1.929 -0.953,-10.785 -1.164,-6.062 -2.762,-14.57 -3.559,-18.883 l -1.43,-7.847 h -4.847 c -2.661,0 -4.848,0.101 -4.844,0.226 0,0.121 3.16,8.492 7.031,18.602 4.465,11.66 7.543,18.492 8.406,18.66 0.071,0.016 0.133,0.031 0.196,0.027 z m 324.722,-7.367 c 6.868,0.106 32.145,-3.535 33.93,-5.015 3.27,-2.715 1.813,-12.477 -2.383,-15.942 -1.785,-1.473 -12.937,-2.082 -21.152,-1.148 -12.758,1.449 -19.981,7.25 -18.715,15.047 0.691,4.273 2.801,6.316 7.199,6.972 0.282,0.043 0.664,0.078 1.121,0.086 z m 98.09,-2.156 c 6.567,0.094 9.516,-1.621 10.336,-5.996 1.281,-6.821 -2.453,-11.942 -10.449,-14.317 -5.938,-1.765 -24.52,-2.66 -27.852,-1.347 -2.308,0.91 -6.132,7.824 -6.132,11.07 0,2.152 1.91,5.785 3.332,6.332 2.609,1 25.621,4.184 30.765,4.258 z"
         style="fill:#000000;fill-opacity:1;fill-rule:nonzero;stroke:none"
         id="path4603"
         inkscape:connector-curvature="0" />
    </g>
  </g>
</svg>
