<?xml version="1.0" standalone="no"?>
<!DOCTYPE svg PUBLIC "-//W3C//DTD SVG 20010904//EN"
 "http://www.w3.org/TR/2001/REC-SVG-20010904/DTD/svg10.dtd">
<svg version="1.0" xmlns="http://www.w3.org/2000/svg"
 width="1279.000000pt" height="1280.000000pt" viewBox="0 0 1279.000000 1280.000000"
 preserveAspectRatio="xMidYMid meet">
<metadata>
Created by potrace 1.15, written by Peter Selinger 2001-2017
</metadata>
<g transform="translate(0.000000,1280.000000) scale(0.100000,-0.100000)"
fill="#000000" stroke="none">
<path d="M3726 12785 c-142 -36 -270 -135 -329 -254 -30 -62 -32 -71 -32 -182
l0 -116 42 -85 c33 -65 58 -100 107 -146 66 -62 203 -139 218 -124 5 5 0 28
-11 53 -27 58 -28 159 -2 215 63 139 274 219 446 169 178 -51 379 -206 538
-413 92 -118 195 -292 307 -513 61 -121 118 -223 127 -226 9 -4 30 9 54 33
l39 40 -70 159 c-118 268 -305 633 -388 760 -214 327 -441 526 -697 610 -101
34 -259 43 -349 20z"/>
<path d="M11607 12496 c-50 -18 -97 -55 -154 -123 -92 -109 -116 -124 -212
-137 -90 -12 -152 -52 -172 -113 -25 -77 64 -185 291 -351 63 -47 130 -99 148
-116 73 -67 147 -179 193 -290 11 -29 23 -46 29 -40 15 16 40 131 46 212 7 92
-7 181 -40 242 -13 25 -41 78 -62 119 l-39 75 0 125 c0 111 4 136 29 214 16
49 40 105 53 125 l25 36 -22 18 c-26 21 -61 22 -113 4z"/>
<path d="M6495 11949 c-168 -23 -396 -102 -552 -191 -143 -82 -243 -159 -412
-320 -86 -81 -235 -223 -331 -314 -247 -234 -429 -368 -615 -455 -158 -72
-349 -119 -492 -119 l-73 0 29 48 c44 72 63 138 69 235 14 253 -115 463 -357
582 -127 63 -211 78 -386 72 -212 -7 -342 -47 -501 -153 -165 -109 -305 -291
-370 -481 -69 -201 -69 -392 0 -597 19 -55 33 -103 31 -104 -2 -2 -36 19 -77
46 -177 119 -445 281 -583 353 -333 173 -580 238 -855 226 -322 -14 -595 -178
-670 -402 -18 -54 -21 -83 -18 -163 4 -123 33 -189 122 -277 211 -209 508
-186 665 52 37 56 40 77 8 70 -121 -28 -135 -29 -192 -17 -148 31 -230 223
-156 368 27 54 101 116 170 144 51 21 71 23 241 23 161 -1 197 -4 275 -24 255
-67 463 -175 865 -451 264 -181 358 -239 558 -345 186 -97 320 -150 462 -181
69 -15 129 -19 310 -19 258 0 362 16 570 87 293 100 502 232 987 620 98 79
191 152 206 163 l29 21 -39 62 c-21 34 -44 62 -51 62 -7 0 -125 -84 -263 -186
-533 -395 -787 -533 -1116 -606 -133 -29 -425 -32 -551 -4 -440 95 -702 368
-704 736 -1 118 21 213 71 314 108 213 285 336 486 336 106 0 171 -20 227 -70
76 -67 114 -192 87 -287 -18 -68 -81 -127 -155 -149 -75 -21 -191 -15 -256 14
-30 13 -50 17 -54 11 -11 -19 59 -144 110 -195 117 -116 282 -164 571 -164
323 -1 557 54 845 201 291 147 558 355 978 761 185 179 288 256 447 333 228
111 516 164 740 136 301 -37 516 -159 660 -377 174 -261 200 -694 61 -1007
-81 -185 -265 -349 -450 -402 -81 -24 -239 -17 -318 14 -128 50 -193 134 -192
246 0 41 7 73 21 100 28 54 110 129 157 145 50 16 151 9 200 -15 83 -40 145
-131 146 -213 0 -58 21 -65 67 -21 130 124 106 361 -54 524 -98 99 -235 181
-374 223 -222 68 -535 51 -780 -41 -108 -41 -408 -201 -424 -226 -4 -8 71
-131 81 -131 3 0 32 15 63 34 199 120 414 192 605 203 l101 6 -47 -38 c-88
-70 -163 -186 -193 -300 -23 -89 -20 -247 6 -331 12 -38 30 -86 40 -106 11
-21 19 -40 19 -43 0 -9 -102 45 -190 103 -260 168 -403 338 -594 702 -33 63
-64 118 -70 122 -5 3 -29 -10 -52 -30 l-43 -37 66 -124 c222 -424 566 -768
975 -977 334 -170 654 -214 957 -133 103 28 259 104 356 173 184 132 308 282
600 721 290 438 348 507 491 578 142 71 334 44 405 -57 51 -73 50 -72 76 -40
86 107 55 286 -70 400 -65 60 -126 90 -216 110 -84 17 -126 17 -226 0 -169
-30 -314 -105 -435 -225 -94 -93 -146 -169 -218 -319 l-55 -115 -18 86 c-103
509 -486 894 -996 1002 -93 20 -365 28 -468 14z"/>
<path d="M10846 11857 c-100 -53 -116 -81 -124 -207 -5 -86 -4 -91 23 -126 70
-92 281 -253 410 -315 124 -58 202 -79 326 -86 77 -4 103 -2 129 10 31 16 32
16 58 -15 15 -17 44 -60 65 -97 148 -262 101 -616 -119 -886 -47 -57 -47 -57
-59 -34 -46 89 -59 325 -26 464 34 140 116 288 192 348 24 19 30 29 24 46 -10
32 -31 26 -86 -26 -72 -68 -134 -166 -170 -274 -29 -82 -33 -110 -37 -226 -5
-140 9 -230 50 -341 l20 -54 -23 -25 c-33 -36 -142 -104 -214 -135 -114 -48
-241 -79 -590 -143 -114 -21 -234 -57 -322 -96 -165 -74 -329 -217 -428 -372
-27 -42 -52 -74 -56 -70 -17 18 -40 140 -45 240 -7 119 9 218 45 295 12 24 18
32 15 18 -32 -131 -35 -160 -30 -236 6 -83 21 -144 40 -156 14 -9 145 125 181
186 22 38 28 61 29 110 l1 61 -50 0 -50 0 2 95 c1 72 7 114 26 170 31 93 21
104 -45 48 -86 -72 -177 -194 -178 -238 -1 -15 -23 8 -61 62 l-16 22 -17 -33
c-31 -60 -46 -125 -46 -206 0 -100 9 -134 70 -265 53 -114 80 -202 80 -263 0
-22 -7 -85 -16 -141 -21 -132 -14 -311 16 -416 52 -182 176 -351 327 -447 99
-63 154 -86 283 -117 204 -51 336 -122 465 -251 142 -141 197 -267 189 -433
-8 -185 -110 -335 -253 -372 -84 -22 -175 14 -222 87 -42 68 -39 112 12 138
15 8 44 15 63 15 59 0 86 45 45 74 -20 13 -27 13 -72 -4 -87 -33 -137 -101
-137 -186 0 -97 67 -181 170 -211 70 -20 158 -6 245 40 140 74 219 200 234
372 l7 80 29 -85 c27 -79 29 -96 29 -235 0 -137 -2 -157 -27 -231 -88 -263
-321 -423 -584 -400 -75 6 -239 41 -263 56 -11 7 -11 14 0 39 18 45 7 108 -24
140 -80 79 -276 -32 -276 -156 0 -119 95 -164 201 -97 l38 23 70 -24 c126 -43
224 -58 340 -52 58 3 119 9 135 13 l30 7 -23 -34 c-43 -65 -109 -214 -126
-286 -23 -96 -17 -235 14 -315 42 -108 161 -233 280 -293 33 -17 34 -17 60 10
30 30 33 26 -70 85 -81 46 -142 109 -180 186 -29 58 -31 69 -28 152 3 71 8 94
23 111 25 27 57 27 84 -1 24 -27 72 -125 72 -150 0 -27 48 -58 92 -58 51 0
114 33 133 70 35 67 7 147 -80 229 -85 81 -168 108 -241 81 -15 -6 -29 -8 -32
-6 -7 7 55 114 96 166 20 25 79 92 132 150 148 163 197 238 236 365 28 89 26
332 -3 430 -62 208 -152 362 -302 518 -91 95 -178 158 -287 209 l-68 32 52 12
c148 33 315 161 381 291 80 159 82 338 5 469 -33 56 -110 126 -175 160 -46 24
-66 28 -134 28 -85 0 -115 -10 -174 -60 -65 -55 -93 -167 -61 -249 48 -124
204 -184 324 -125 81 41 134 137 123 222 -12 88 56 -37 73 -134 22 -123 -25
-267 -120 -371 -66 -72 -115 -105 -213 -139 -349 -124 -715 76 -836 457 -48
150 -49 281 -5 465 47 192 235 430 409 516 128 63 283 59 424 -12 79 -39 157
-117 197 -195 33 -66 30 -70 -11 -17 -35 45 -95 93 -167 135 -43 25 -145 59
-153 52 -6 -6 30 -156 47 -195 35 -82 118 -164 152 -151 8 3 19 22 26 42 10
30 15 35 33 29 45 -14 130 -79 184 -140 31 -35 60 -64 64 -64 10 0 1 59 -22
148 -22 82 -41 126 -71 159 -27 29 -15 43 38 43 24 0 44 3 44 6 0 13 -46 71
-84 107 -79 73 -200 119 -381 142 l-90 12 40 13 c67 22 328 25 426 5 317 -65
603 -284 750 -576 37 -75 38 -78 23 -108 -9 -17 -14 -44 -12 -60 2 -22 -5 -35
-31 -57 -43 -36 -91 -110 -91 -140 0 -40 35 -54 131 -54 96 0 195 27 284 76
55 31 145 113 145 133 0 20 -47 57 -88 69 -22 7 -65 12 -95 12 -47 0 -58 4
-68 21 -6 11 -30 30 -54 40 -34 15 -46 27 -55 55 -38 114 -258 377 -393 468
-31 22 -56 41 -54 42 1 2 36 -6 77 -17 41 -11 108 -29 149 -39 89 -24 222 -26
301 -5 97 26 229 102 216 124 -4 5 -29 17 -56 26 -27 9 -52 20 -55 25 -3 4 14
19 38 33 51 30 108 90 164 172 38 56 83 138 83 150 0 12 -29 2 -102 -36 -99
-51 -172 -76 -248 -85 l-60 -7 0 36 c0 20 -5 48 -10 63 -10 24 -14 26 -51 20
-60 -10 -128 -48 -180 -103 -64 -66 -161 -215 -149 -227 5 -5 58 -10 117 -9
129 0 192 16 313 79 l85 44 -45 -40 c-52 -46 -158 -99 -250 -126 -53 -16 -96
-19 -240 -18 -161 0 -182 2 -260 27 -47 15 -115 35 -152 44 -68 18 -88 33 -45
33 40 0 179 40 258 74 199 86 399 268 503 457 64 117 98 239 104 370 6 138
-12 235 -64 347 -34 75 -105 182 -143 216 -15 14 -21 31 -21 61 0 100 -147
316 -287 422 -87 65 -274 172 -357 203 -76 29 -110 25 -200 -23z"/>
<path d="M10566 11359 c-53 -42 -68 -115 -41 -203 26 -85 20 -121 -36 -233
-43 -85 -52 -113 -57 -171 -3 -50 0 -76 11 -98 33 -64 37 -63 138 39 168 167
315 220 517 185 111 -19 234 18 372 112 30 21 64 47 74 59 l19 21 -75 0 c-164
0 -300 43 -477 149 -251 151 -380 191 -445 140z"/>
<path d="M12010 11093 c-54 -7 -170 -43 -170 -53 0 -5 7 -15 15 -24 14 -13 20
-13 58 2 32 12 76 16 182 16 123 0 147 -2 198 -23 87 -34 137 -78 175 -151 33
-62 34 -69 30 -155 -3 -69 -10 -100 -27 -135 -32 -61 -60 -97 -98 -126 l-32
-24 6 53 c7 65 -13 112 -63 157 -50 44 -107 56 -170 36 -57 -18 -86 -44 -109
-98 -32 -78 -5 -164 67 -214 37 -26 50 -29 117 -29 163 0 300 107 351 273 26
82 25 143 -1 228 -18 57 -30 77 -82 129 -64 62 -135 103 -217 123 -55 13 -182
21 -230 15z"/>
<path d="M9078 9250 c-4 -8 -21 -69 -38 -135 -136 -520 -383 -997 -747 -1445
-191 -235 -537 -571 -790 -768 l-42 -33 25 58 c36 80 54 172 54 273 0 114 -22
207 -70 304 -158 320 -536 440 -855 273 -80 -42 -211 -174 -253 -253 -56 -108
-75 -233 -51 -346 49 -232 261 -398 457 -357 81 16 122 40 179 103 125 136
110 306 -36 404 -85 57 -98 55 -58 -10 28 -44 32 -60 32 -119 0 -76 -17 -110
-74 -143 -113 -66 -225 -26 -288 102 -59 121 -23 265 92 370 230 211 553 162
688 -103 43 -85 57 -147 57 -251 0 -107 -22 -186 -80 -284 -112 -190 -304
-352 -835 -704 -146 -98 -263 -181 -261 -185 3 -4 27 -16 53 -26 26 -10 74
-31 106 -47 l59 -29 96 63 c53 34 207 135 342 223 480 316 533 344 701 372
129 21 176 14 237 -39 26 -23 94 -63 152 -90 58 -27 121 -56 140 -66 84 -42
147 -146 157 -260 8 -97 -10 -171 -63 -249 -24 -36 -44 -69 -44 -74 0 -5 11
-11 25 -15 19 -5 39 4 89 40 80 57 126 112 167 200 26 55 31 80 32 139 0 40
-3 83 -7 97 l-7 25 20 -25 c11 -14 37 -59 58 -100 55 -110 64 -113 99 -36 71
156 34 373 -81 474 -25 22 -45 42 -45 44 0 3 29 20 65 37 70 35 109 79 121
138 8 42 -19 130 -56 182 -32 43 -53 49 -58 15 -7 -46 -27 -76 -66 -98 -53
-31 -118 -43 -289 -56 -270 -20 -349 -36 -422 -85 -43 -28 -161 -72 -170 -63
-2 2 47 46 107 98 741 641 1253 1490 1373 2275 16 103 17 218 3 185z"/>
<path d="M12424 8890 c-71 -15 -176 -55 -172 -65 1 -5 5 -9 8 -9 3 1 19 4 35
7 28 6 28 6 7 -5 l-23 -12 28 -12 c26 -12 25 -12 -32 -14 -59 -1 -59 -2 -30
-15 17 -7 73 -27 125 -43 52 -17 127 -42 165 -57 145 -55 212 -50 240 19 32
76 5 141 -75 186 -38 20 -60 25 -140 27 -52 1 -113 -2 -136 -7z"/>
<path d="M12165 8729 c39 -22 95 -62 91 -66 -2 -2 -19 5 -37 16 -54 33 -67 25
-28 -15 l34 -37 -62 42 c-34 22 -65 41 -68 41 -3 0 14 -28 38 -62 25 -35 75
-115 112 -178 80 -139 108 -176 149 -201 61 -37 133 -13 184 61 79 116 -86
301 -345 391 -63 21 -102 26 -68 8z"/>
<path d="M12020 8656 c0 -2 6 -19 14 -37 29 -72 30 -87 2 -46 -15 20 -29 37
-32 37 -4 0 -4 -18 -2 -39 5 -53 -7 -43 -22 19 -24 100 -46 44 -37 -94 19
-271 88 -417 205 -433 113 -15 167 101 114 249 -37 105 -184 325 -227 342 -8
3 -15 4 -15 2z"/>
<path d="M11555 8587 c-94 -38 -156 -79 -216 -142 -53 -55 -68 -86 -69 -142 0
-83 101 -158 169 -126 37 18 63 52 132 169 29 49 74 121 101 161 26 40 48 75
48 78 0 12 -25 3 -47 -17 -19 -17 -23 -19 -17 -5 4 12 1 17 -12 18 -16 0 -16
2 4 11 12 6 22 15 22 20 0 15 -34 8 -115 -25z"/>
<path d="M11759 8578 c-79 -108 -147 -307 -135 -401 11 -96 77 -157 168 -157
57 0 89 18 110 60 23 45 23 98 -2 245 -11 66 -23 159 -26 208 -8 95 -27 119
-39 48 -6 -37 -7 -39 -24 -23 -12 12 -15 22 -9 34 18 37 -13 26 -43 -14z"/>
<path d="M12299 7605 c-54 -19 -98 -44 -156 -87 -29 -21 -64 -38 -78 -38 -45
0 -108 -40 -183 -117 -51 -51 -92 -83 -135 -104 -34 -16 -67 -29 -73 -29 -31
0 -77 -79 -94 -165 -14 -71 -45 -127 -95 -174 -37 -34 -37 -36 -33 -100 3 -52
12 -83 43 -145 37 -75 38 -80 26 -120 -24 -75 -24 -118 -2 -177 33 -88 91
-161 171 -213 87 -58 138 -121 179 -225 39 -96 93 -160 168 -203 l55 -31 104
-210 c59 -117 101 -214 96 -219 -5 -5 -37 4 -73 21 -107 48 -175 63 -284 64
-151 0 -280 -41 -430 -138 -141 -91 -137 -144 9 -100 86 26 122 21 200 -32 90
-61 148 -68 234 -30 105 47 206 45 316 -6 109 -50 236 -204 276 -333 27 -89
27 -219 0 -305 -96 -306 -480 -506 -849 -445 -308 52 -553 235 -681 508 -53
113 -73 201 -74 323 -1 123 13 183 70 302 97 202 271 365 457 428 77 25 137
33 137 16 0 -36 -138 -100 -235 -108 -46 -5 -69 -13 -98 -35 -20 -17 -35 -34
-31 -39 9 -14 163 -10 234 7 135 31 292 127 320 194 12 28 11 34 -7 52 -52 52
-252 38 -413 -29 -91 -38 -172 -87 -232 -140 -226 -201 -327 -463 -299 -775 6
-67 10 -196 7 -287 -6 -218 -33 -360 -100 -528 -19 -49 -29 -86 -24 -91 5 -5
-10 -12 -38 -16 -26 -3 -95 -20 -153 -36 -432 -125 -688 -334 -796 -651 -66
-191 -73 -443 -20 -652 118 -464 613 -901 1350 -1190 296 -116 622 -194 900
-213 l100 -7 -80 -14 c-135 -23 -354 -6 -547 42 -120 31 -129 3 -29 -84 164
-141 291 -205 489 -246 165 -34 350 -8 511 71 77 38 110 62 176 128 91 90 130
153 171 271 25 72 28 94 28 215 0 117 -3 148 -27 234 -15 55 -32 105 -38 113
-23 27 -47 14 -76 -43 -61 -121 -170 -227 -265 -258 -96 -31 -152 -23 -368 53
-121 43 -157 48 -193 29 -12 -6 -76 -66 -142 -133 -144 -147 -169 -160 -285
-159 -86 1 -189 28 -313 84 -43 19 -46 23 -36 42 22 41 141 148 209 189 38 22
111 55 162 72 87 29 103 31 233 30 124 0 149 -3 220 -26 44 -15 113 -46 154
-69 110 -64 135 -77 149 -78 24 0 11 15 -43 55 -131 95 -261 148 -413 166
-153 19 -332 -20 -479 -103 -70 -40 -186 -141 -232 -202 l-21 -29 -116 56
c-293 144 -379 222 -311 284 12 11 68 35 125 53 120 38 202 85 275 157 106
105 158 223 165 375 3 79 0 110 -16 165 -52 168 -178 277 -360 308 -135 24
-293 -18 -392 -102 -127 -109 -137 -334 -20 -454 57 -59 111 -77 184 -60 70
16 111 45 135 95 37 76 23 141 -47 218 -50 55 -62 78 -62 123 0 69 88 125 196
125 136 0 257 -129 286 -304 21 -125 -19 -252 -104 -332 -56 -53 -97 -77 -183
-106 -99 -32 -275 -33 -389 0 -162 46 -309 142 -399 257 -53 69 -113 194 -137
290 -16 61 -21 112 -21 211 -1 237 47 404 133 466 28 19 50 23 148 29 193 11
334 70 468 195 44 42 63 67 59 78 -5 12 4 18 36 26 23 6 49 13 58 16 9 2 56
11 105 19 213 35 420 4 607 -92 63 -33 87 -50 87 -64 0 -27 35 -59 65 -59 15
0 31 10 41 26 16 24 16 27 -3 52 -14 18 -33 29 -59 33 -21 3 -61 20 -89 37
-64 42 -181 86 -277 106 -99 21 -310 21 -415 1 -43 -8 -79 -15 -81 -15 -1 0
12 19 29 42 16 24 28 50 26 60 -7 24 86 32 272 25 283 -11 474 -89 650 -264
l93 -93 -37 -41 c-50 -56 -81 -127 -76 -176 2 -24 42 -13 109 32 41 27 93 51
133 62 59 15 76 16 148 4 44 -7 88 -11 96 -7 44 17 -94 138 -173 152 -29 5
-52 23 -111 86 -226 242 -500 347 -878 336 l-152 -5 15 36 c57 133 104 345
116 526 l3 40 56 -80 c167 -239 496 -422 792 -441 390 -24 756 202 873 541 25
70 28 95 28 200 0 110 -2 128 -33 214 -18 52 -88 202 -156 335 -215 422 -291
654 -302 918 -9 204 29 370 117 520 94 157 199 233 291 208 52 -14 86 -44 115
-103 30 -59 35 -142 11 -198 -15 -37 -72 -100 -107 -119 -19 -10 -20 -8 -20
33 0 98 -113 161 -194 108 -40 -26 -55 -57 -56 -110 0 -38 5 -49 40 -83 39
-40 41 -40 102 -36 123 8 248 94 282 195 59 172 -58 361 -224 362 -144 2 -320
-220 -392 -494 -30 -114 -30 -335 1 -495 35 -184 34 -181 14 -134 -10 23 -49
74 -86 114 -38 41 -95 114 -128 163 -203 304 -259 629 -159 927 18 53 71 166
56 120 -3 -8 -19 -57 -35 -108 -93 -280 -41 -586 147 -865 50 -74 69 -94 78
-84 2 2 8 83 12 179 l8 176 33 53 c66 104 80 134 85 185 4 28 29 116 56 195
55 160 60 203 30 279 -25 65 -25 112 1 186 16 47 21 81 20 165 -2 108 11 161
43 189 17 13 21 36 9 43 -5 3 -24 -1 -44 -8z m-1675 -4021 c-21 -33 -37 -61
-35 -63 1 -2 -31 -14 -71 -28 -110 -36 -301 -130 -296 -145 8 -23 37 -20 105
13 38 17 100 45 138 60 l70 29 -50 -45 c-164 -146 -465 -209 -465 -97 0 19 15
40 54 77 66 62 135 103 264 160 104 45 307 108 320 99 2 -1 -14 -28 -34 -60z"/>
<path d="M3140 7130 c-27 -27 -25 -66 5 -95 68 -68 160 20 95 91 -29 30 -72
32 -100 4z"/>
<path d="M2971 7084 c-28 -35 -26 -56 5 -88 32 -31 76 -34 104 -6 27 27 25 66
-5 95 -33 34 -77 33 -104 -1z"/>
<path d="M10060 7038 c0 -36 -36 -86 -87 -121 -53 -36 -83 -63 -83 -74 0 -5
34 -25 76 -47 41 -21 102 -58 135 -82 32 -24 65 -44 72 -44 6 0 40 10 75 22
70 26 68 23 52 127 -13 76 -39 131 -77 161 -23 18 -146 80 -159 80 -2 0 -4
-10 -4 -22z"/>
<path d="M3398 7026 c-83 -30 -131 -87 -168 -197 -12 -35 -25 -67 -29 -72 -4
-4 -27 12 -52 35 -93 89 -226 138 -376 138 -129 0 -276 -45 -353 -108 -37 -30
-18 -51 76 -82 162 -55 293 -139 437 -279 109 -106 181 -196 257 -322 59 -99
130 -262 161 -374 12 -44 29 -87 36 -95 13 -13 19 -10 50 25 56 65 100 145
134 246 28 83 33 110 37 229 4 128 -2 198 -38 430 -15 101 -12 180 9 227 22
46 51 69 113 87 23 7 44 18 46 24 5 15 -103 68 -175 87 -70 18 -116 18 -165 1z"/>
<path d="M10391 7015 c-28 -13 -32 -19 -26 -38 18 -58 24 -109 25 -193 0 -73
3 -94 17 -105 22 -19 53 -88 53 -122 0 -15 -7 -43 -15 -63 -14 -34 -14 -35 13
-45 15 -6 53 -11 86 -12 55 -2 60 0 87 33 18 21 29 46 29 65 1 16 9 55 20 85
32 90 29 102 -49 184 -38 40 -81 96 -95 123 -25 50 -77 103 -99 103 -7 -1 -27
-7 -46 -15z"/>
<path d="M4958 6999 c-121 -28 -250 -135 -309 -254 -31 -64 -34 -77 -34 -165
0 -84 3 -102 28 -152 31 -62 84 -116 149 -149 52 -27 168 -37 221 -20 90 30
153 106 164 199 9 82 -26 163 -42 93 -3 -16 -20 -48 -36 -71 -83 -114 -249
-82 -289 56 -10 34 -10 50 4 96 56 194 261 259 476 151 81 -40 130 -91 174
-183 28 -59 31 -74 31 -160 0 -86 -3 -101 -31 -161 -63 -132 -193 -225 -404
-289 -390 -118 -626 -226 -910 -415 -258 -171 -509 -399 -679 -615 l-83 -105
7 55 c21 154 100 349 189 467 114 151 279 257 491 317 50 14 95 33 102 42 49
67 -38 188 -154 214 -143 33 -430 -154 -594 -388 -35 -51 -45 -60 -51 -45 -3
10 -23 71 -43 135 -83 264 -221 494 -410 684 -205 207 -402 317 -640 359 -166
29 -327 14 -402 -38 -100 -68 -111 -264 -17 -303 30 -13 41 -12 111 10 139 43
186 50 308 50 144 0 222 -18 350 -79 314 -151 551 -546 619 -1035 16 -109 36
-390 29 -399 -1 -2 -8 10 -14 28 -21 60 -88 191 -130 254 -56 83 -187 212
-279 274 -156 105 -344 182 -540 220 -145 28 -467 25 -612 -5 -457 -95 -745
-325 -804 -642 -14 -71 -14 -96 -4 -160 33 -204 154 -361 355 -460 148 -72
198 -80 565 -90 331 -8 435 -20 556 -63 174 -63 298 -176 389 -356 39 -79 105
-266 105 -299 0 -8 -18 12 -39 44 -62 93 -110 143 -195 207 -146 108 -308 175
-486 202 -500 76 -982 -157 -1148 -557 -43 -103 -77 -228 -106 -386 -31 -166
-71 -255 -157 -347 -156 -166 -355 -178 -464 -28 -16 23 -33 42 -37 42 -5 1
-8 -25 -8 -57 0 -49 5 -65 35 -109 43 -64 123 -126 192 -148 83 -27 192 -18
274 22 86 42 174 135 224 233 l37 74 29 -55 c83 -153 268 -310 439 -371 58
-20 83 -23 220 -23 143 1 161 3 235 28 277 96 455 321 456 578 1 173 -74 325
-211 428 -145 108 -310 119 -460 29 -127 -77 -177 -224 -120 -357 25 -56 92
-125 145 -147 78 -32 201 -8 282 56 14 11 30 20 34 20 5 0 9 -24 9 -52 0 -40
-7 -66 -30 -104 -36 -64 -76 -98 -160 -138 -61 -29 -72 -31 -185 -31 -110 0
-125 2 -178 27 -154 73 -271 274 -284 493 -13 222 105 446 304 575 373 244
952 158 1233 -183 28 -34 71 -104 96 -154 26 -51 49 -93 53 -92 3 0 44 46 91
101 296 351 735 744 1221 1090 300 214 563 383 1153 740 237 144 411 251 669
410 26 16 47 34 47 38 0 9 -207 80 -231 80 -7 0 -87 -49 -178 -108 -91 -60
-310 -200 -486 -313 -942 -601 -1362 -903 -1755 -1265 -146 -134 -320 -318
-405 -429 -43 -55 -69 -79 -63 -58 4 15 -13 108 -37 200 -60 228 -165 395
-325 513 -133 99 -306 169 -520 210 -398 78 -566 162 -645 325 -55 111 -40
263 36 378 69 104 208 193 374 237 113 30 355 38 481 16 482 -84 840 -428 905
-871 7 -44 15 -84 19 -88 4 -5 33 29 65 75 328 470 795 856 1278 1057 437 181
942 233 1337 137 263 -65 428 -182 521 -371 76 -156 89 -302 37 -417 -78 -171
-287 -256 -444 -182 -47 22 -49 30 -12 38 81 16 148 95 148 173 0 90 -92 203
-177 219 -100 19 -195 -18 -253 -98 -41 -56 -53 -108 -48 -200 10 -178 144
-343 338 -417 56 -21 81 -25 185 -25 104 0 130 4 193 27 226 79 371 249 409
477 44 263 -80 560 -313 745 -224 179 -498 271 -841 282 l-151 5 35 46 c81
106 115 210 115 352 -1 164 -55 286 -178 399 -70 64 -168 120 -253 145 -60 17
-219 20 -283 5z"/>
<path d="M3107 6962 c-38 -42 0 -122 58 -122 58 0 87 79 43 120 -27 25 -79 26
-101 2z"/>
<path d="M8718 6773 c-18 -5 -34 -38 -29 -63 7 -41 67 -52 97 -19 17 18 17 23
4 46 -16 28 -44 42 -72 36z"/>
<path d="M9706 6709 c-12 -18 -16 -47 -16 -122 0 -72 -4 -104 -16 -122 -12
-18 -13 -28 -5 -44 6 -11 11 -44 11 -73 0 -51 2 -56 49 -102 46 -46 50 -47 72
-33 13 8 56 17 96 20 55 4 81 12 112 33 45 29 48 38 26 80 -29 56 -12 146 42
228 32 49 33 47 -115 106 -75 30 -127 44 -173 48 -61 4 -67 3 -83 -19z"/>
<path d="M8620 6653 c-46 -16 -54 -81 -14 -112 50 -40 104 -16 104 46 0 43
-50 80 -90 66z"/>
<path d="M8770 6601 c-15 -30 -12 -48 12 -71 40 -37 98 -17 98 34 0 50 -87 79
-110 37z"/>
<path d="M8680 6450 c-15 -28 -5 -55 26 -69 36 -16 64 1 64 39 0 48 -68 70
-90 30z"/>
<path d="M10314 6316 c-18 -13 -20 -23 -16 -68 2 -29 -5 -119 -17 -199 -12
-80 -21 -149 -21 -152 0 -15 21 -5 55 28 21 19 63 56 93 82 31 27 87 77 124
112 64 60 68 66 68 109 l0 45 -35 -6 c-42 -7 -136 16 -181 43 -38 24 -43 24
-70 6z"/>
<path d="M10075 6222 c-55 -62 -88 -81 -157 -89 -60 -7 -80 -26 -109 -102 -43
-117 -39 -130 65 -182 34 -17 72 -42 87 -55 19 -18 36 -24 71 -24 70 0 105 16
106 48 0 15 21 111 46 212 25 102 46 199 48 215 l3 30 -57 0 c-56 0 -57 -1
-103 -53z"/>
<path d="M11990 3165 c0 -4 27 -36 59 -71 106 -113 179 -242 226 -399 40 -134
45 -145 78 -161 59 -31 165 24 207 107 28 54 27 140 -4 204 -52 112 -213 224
-422 294 -71 24 -144 37 -144 26z"/>
<path d="M11841 3123 c-78 -154 -53 -518 45 -669 77 -118 217 -126 267 -16 47
104 17 287 -80 481 -43 88 -70 128 -118 177 -35 35 -70 64 -79 64 -8 0 -24
-17 -35 -37z"/>
<path d="M11635 3017 c-137 -139 -212 -258 -236 -375 -15 -73 -4 -133 36 -194
51 -78 176 -119 257 -85 44 19 55 48 40 110 -6 23 -16 94 -22 158 -14 139 -3
258 35 377 43 135 18 137 -110 9z"/>
<path d="M7192 1454 c-139 -69 -200 -240 -134 -371 19 -37 99 -119 108 -111 2
3 -5 23 -16 46 -25 50 -26 131 -4 179 34 70 117 106 209 89 88 -17 148 -124
126 -228 -55 -252 -347 -425 -867 -513 -110 -18 -390 -35 -457 -28 l-48 6 51
26 c106 54 194 148 236 250 18 43 24 75 24 142 0 76 -4 93 -30 146 -70 140
-250 200 -382 126 -62 -35 -112 -107 -123 -178 -7 -53 10 -148 31 -165 12 -11
14 -6 14 29 0 109 71 184 175 184 64 0 107 -22 136 -70 65 -105 -13 -278 -158
-351 -220 -111 -594 -48 -756 127 -65 70 -91 137 -91 226 2 171 172 273 314
189 69 -40 93 -144 44 -183 -59 -46 -138 -13 -133 54 4 43 -6 53 -30 31 -78
-70 -32 -198 83 -231 150 -43 283 97 246 261 -20 90 -87 165 -189 212 -47 23
-70 27 -146 27 -77 -1 -98 -5 -146 -28 -184 -89 -250 -325 -137 -489 10 -14
18 -29 18 -32 0 -12 -113 70 -275 198 -271 215 -377 281 -530 329 -135 42
-253 52 -395 33 -291 -40 -537 -156 -1060 -503 -124 -82 -230 -152 -237 -156
-6 -4 2 17 18 46 69 127 79 314 25 434 -33 72 -94 134 -164 166 -72 33 -199
31 -268 -5 -146 -77 -191 -244 -104 -382 16 -25 34 -46 40 -46 5 0 10 23 10
50 0 83 44 160 112 196 32 17 115 18 155 3 108 -40 159 -190 115 -336 -38
-125 -116 -211 -262 -287 -183 -96 -468 -150 -673 -126 -294 34 -430 142 -430
340 0 158 88 250 242 250 103 0 161 -50 169 -145 4 -44 1 -56 -21 -80 -20 -24
-33 -30 -67 -30 -56 0 -80 29 -80 96 0 58 -16 65 -44 18 -44 -75 -8 -177 76
-218 190 -91 363 127 266 336 -83 178 -354 238 -535 118 -87 -58 -153 -183
-153 -288 0 -85 42 -194 101 -266 15 -19 27 -37 25 -39 -2 -2 -59 15 -126 37
-152 51 -346 143 -459 218 -106 71 -247 205 -298 284 -21 32 -41 59 -45 59
-13 0 41 -133 84 -205 74 -124 231 -265 408 -367 143 -82 399 -168 620 -209
176 -32 434 -32 605 0 230 42 454 132 789 315 303 166 514 149 608 -49 67
-143 11 -297 -123 -335 -91 -26 -171 -1 -200 64 -32 75 4 136 82 136 32 0 43
-6 73 -42 l36 -43 0 38 c0 106 -105 185 -209 157 -80 -21 -131 -86 -136 -173
-7 -110 66 -213 181 -257 75 -28 194 -25 266 7 66 30 133 95 165 162 23 48 27
69 28 146 0 82 -3 96 -33 157 -40 81 -111 149 -202 192 -58 27 -75 30 -162 31
-54 0 -98 2 -98 5 0 7 217 130 317 179 458 227 852 251 1036 62 102 -104 156
-245 143 -379 -12 -131 -41 -198 -116 -265 -89 -80 -226 -105 -324 -58 -123
60 -142 229 -36 325 54 48 100 55 200 31 23 -6 22 -4 -10 24 -159 140 -387 88
-459 -104 -34 -91 -28 -207 17 -297 94 -192 335 -283 570 -215 158 46 279 149
351 300 62 128 85 300 55 400 -3 9 -3 17 1 17 3 0 42 -32 88 -71 277 -240 596
-378 977 -424 324 -39 644 -3 1160 130 233 60 328 73 427 56 184 -31 293 -126
293 -257 0 -52 -26 -107 -63 -134 -55 -40 -146 -41 -191 -2 -29 26 -56 92 -56
140 0 23 -3 42 -8 42 -13 0 -31 -38 -42 -87 -23 -102 25 -190 135 -244 56 -27
72 -31 127 -27 109 7 202 69 250 167 18 36 23 63 23 126 0 71 -4 88 -33 147
-20 41 -49 81 -75 103 -59 51 -172 104 -235 112 -29 3 -49 9 -45 13 12 11 273
104 408 145 188 57 413 112 583 142 142 24 182 27 410 27 l253 1 -33 27 c-46
38 -151 92 -223 114 -48 15 -92 19 -225 19 -153 -1 -174 -3 -295 -34 -170 -43
-327 -100 -624 -228 -326 -140 -301 -132 -251 -76 92 104 139 254 116 374 -24
128 -91 219 -199 270 -53 25 -74 29 -143 29 -66 0 -89 -4 -132 -26z"/>
<path d="M12388 718 c-9 -7 -22 -33 -28 -58 -28 -107 -126 -267 -212 -347 -42
-38 -50 -41 -86 -36 -33 4 -42 2 -56 -18 -9 -13 -16 -32 -16 -42 0 -26 45 -67
74 -67 29 0 66 35 66 61 0 10 23 40 51 66 74 69 133 150 178 243 63 130 78
236 29 198z"/>
</g>
</svg>
