<?xml version="1.0" standalone="no"?>
<!DOCTYPE svg PUBLIC "-//W3C//DTD SVG 20010904//EN"
 "http://www.w3.org/TR/2001/REC-SVG-20010904/DTD/svg10.dtd">
<svg version="1.0" xmlns="http://www.w3.org/2000/svg"
 width="1280.000000pt" height="1280.000000pt" viewBox="0 0 1280.000000 1280.000000"
 preserveAspectRatio="xMidYMid meet">
<metadata>
Created by potrace 1.15, written by Peter Selinger 2001-2017
</metadata>
<g transform="translate(0.000000,1280.000000) scale(0.100000,-0.100000)"
fill="#000000" stroke="none">
<path d="M6430 9640 c-58 -91 -95 -203 -160 -493 -21 -94 -22 -97 -48 -95 -25
3 -26 0 -39 -77 -7 -44 -11 -87 -10 -95 1 -9 -8 -16 -23 -19 -36 -4 -40 -16
-40 -108 l0 -83 -29 0 c-48 0 -55 -19 -46 -128 14 -170 16 -157 -32 -154 -40
3 -42 2 -48 -30 -3 -20 2 -65 15 -112 27 -107 27 -106 -20 -106 -55 0 -59 -16
-26 -114 32 -99 33 -108 4 -101 -13 3 -29 1 -37 -4 -12 -8 -11 -22 8 -93 12
-46 29 -96 37 -112 18 -37 4 -57 -26 -38 -11 6 -27 12 -36 12 -31 0 -7 -154
41 -264 l16 -39 -28 6 c-16 3 -36 7 -44 9 -11 2 -15 -12 -17 -64 -3 -61 9
-114 42 -190 6 -13 1 -17 -26 -20 -29 -3 -33 -7 -36 -34 -2 -20 9 -53 32 -97
20 -37 36 -69 36 -72 0 -3 -12 -5 -26 -5 -24 0 -26 -3 -20 -32 3 -18 24 -68
46 -111 42 -81 43 -97 8 -97 -19 0 -20 -4 -15 -48 3 -26 19 -89 35 -139 25
-76 27 -94 16 -104 -7 -6 -18 -8 -24 -4 -19 12 -50 -6 -50 -29 0 -33 32 -126
85 -245 50 -113 49 -134 -5 -111 -17 7 -33 10 -36 7 -15 -15 26 -125 98 -266
43 -85 78 -158 78 -163 0 -4 -14 -8 -30 -8 -31 0 -63 -24 -86 -66 -9 -16 -14
-17 -27 -6 -19 16 -33 78 -43 187 -7 73 -10 82 -41 111 l-33 31 0 100 c0 78
-3 103 -15 113 -13 10 -19 10 -33 -4 -35 -31 -49 -20 -56 42 -6 49 -13 97 -32
200 -6 30 -37 28 -58 -4 -29 -44 -41 -24 -47 82 -3 54 -11 112 -18 128 -11 27
-13 28 -30 12 -43 -39 -66 -15 -74 79 -6 66 -32 165 -45 165 -3 0 -13 -7 -23
-16 -32 -28 -49 -11 -49 49 0 29 -7 78 -16 108 -26 87 -47 100 -76 49 -9 -17
-21 -30 -25 -30 -5 0 -14 32 -20 70 -12 76 -71 220 -90 220 -6 0 -15 -9 -18
-20 -3 -11 -15 -20 -26 -20 -17 0 -19 7 -19 57 0 72 -27 173 -47 173 -8 0 -26
-9 -40 -20 -36 -28 -43 -25 -43 14 0 19 -9 63 -20 98 -11 34 -20 71 -20 81 0
24 -46 22 -62 -3 -23 -36 -34 -21 -46 56 -13 83 -42 145 -79 169 -22 15 -24
14 -32 -8 -11 -28 -37 -51 -49 -43 -5 3 -12 26 -15 51 -7 45 -45 119 -75 143
-9 6 -28 12 -44 12 -23 0 -31 8 -53 54 -34 73 -67 106 -104 106 -24 0 -30 5
-36 30 -10 44 -42 78 -85 90 -34 9 -41 16 -50 50 -7 28 -20 45 -46 61 -43 26
-77 78 -178 269 -68 129 -163 276 -173 267 -2 -2 20 -80 47 -173 79 -263 92
-322 94 -414 1 -47 7 -95 14 -108 7 -12 15 -61 17 -109 3 -62 10 -95 25 -120
l20 -34 -25 -9 c-22 -8 -24 -12 -14 -36 5 -15 25 -49 44 -75 38 -50 42 -74 20
-102 -18 -25 -11 -43 47 -104 26 -28 48 -57 48 -63 0 -6 -16 -18 -35 -26 -32
-13 -34 -17 -24 -35 6 -12 40 -49 75 -84 35 -34 64 -66 64 -70 0 -4 -11 -16
-25 -27 -23 -18 -24 -21 -11 -47 8 -15 44 -55 80 -89 68 -64 79 -82 48 -82
-11 0 -27 -9 -37 -20 -19 -21 -18 -22 70 -110 49 -49 87 -91 84 -93 -2 -3 -14
-10 -26 -16 -13 -6 -23 -18 -23 -26 0 -15 58 -75 129 -134 47 -39 51 -53 16
-69 -14 -6 -25 -18 -25 -26 0 -17 49 -60 112 -100 56 -35 64 -51 43 -82 -8
-13 -15 -30 -15 -39 0 -16 66 -61 114 -77 17 -6 41 -20 54 -31 l22 -21 -22
-23 -22 -23 30 -31 c16 -17 62 -48 102 -70 39 -22 73 -46 73 -52 1 -7 2 -30 3
-51 1 -38 5 -42 84 -99 71 -50 83 -62 77 -81 -22 -70 -24 -68 125 -155 43 -26
66 -46 68 -60 3 -22 3 -22 -35 -6 -21 9 -50 28 -65 42 -22 21 -32 24 -66 18
-39 -6 -40 -6 -91 59 -56 71 -90 89 -120 62 -10 -9 -22 -16 -28 -16 -5 0 -43
32 -84 71 l-73 70 -49 -6 c-47 -7 -49 -6 -96 38 -60 57 -131 92 -291 147 -69
23 -132 48 -140 55 -25 20 -49 25 -74 14 -19 -9 -30 -6 -65 15 -23 15 -50 35
-60 45 -12 12 -41 20 -87 25 -231 23 -540 98 -817 197 -60 22 -116 39 -125 39
-28 0 35 -56 159 -140 80 -55 126 -95 149 -127 18 -27 57 -73 85 -103 29 -30
59 -68 66 -85 11 -23 26 -34 61 -45 44 -14 48 -18 48 -47 0 -29 6 -35 53 -58
64 -32 79 -49 67 -80 -8 -21 -4 -26 36 -45 24 -12 62 -24 84 -27 43 -6 48 -16
25 -47 -8 -11 -15 -25 -15 -32 0 -12 100 -44 138 -44 16 0 21 -7 24 -32 3 -38
42 -62 122 -77 26 -5 49 -11 52 -14 3 -3 1 -21 -4 -40 -7 -25 -7 -40 1 -50 7
-8 59 -24 115 -35 57 -11 107 -23 110 -26 3 -4 -5 -17 -17 -30 l-23 -24 26
-17 c14 -9 56 -21 93 -27 98 -15 96 -14 90 -47 -4 -18 -1 -33 6 -39 12 -10
163 -42 196 -42 14 0 17 -6 14 -25 -4 -20 0 -25 23 -31 16 -3 45 -10 64 -15
19 -5 60 -9 90 -9 l56 0 -4 -34 c-6 -49 19 -59 121 -52 111 8 191 -3 195 -27
2 -11 -8 -31 -22 -46 -26 -27 -27 -27 -135 -23 -272 11 -544 -96 -723 -286
-28 -30 -60 -53 -78 -57 -17 -4 -56 -31 -87 -60 -31 -30 -69 -57 -85 -60 -30
-7 -58 -39 -58 -67 0 -11 -17 -26 -42 -39 -79 -40 -196 -129 -257 -196 -67
-73 -76 -91 -32 -69 126 66 298 110 486 126 212 18 305 30 380 50 94 25 105
25 105 -1 0 -16 4 -19 18 -14 26 12 139 42 217 60 39 8 95 27 125 43 44 22 60
26 81 18 23 -8 37 -3 93 32 75 48 80 49 71 23 -10 -31 12 -34 50 -6 39 31 104
65 121 65 7 0 15 -7 18 -16 5 -13 19 -9 89 29 46 25 104 48 130 52 33 5 63 20
102 51 68 52 92 61 112 41 13 -12 0 -26 -103 -111 -129 -107 -186 -141 -257
-151 -42 -7 -50 -12 -65 -43 -13 -28 -28 -40 -62 -53 -56 -21 -70 -41 -47 -67
17 -19 17 -20 -22 -36 -30 -12 -55 -35 -96 -90 -30 -41 -55 -79 -55 -84 0 -5
9 -12 20 -15 20 -5 18 -9 -20 -59 -63 -83 -103 -212 -82 -267 9 -24 9 -24 40
21 55 80 149 164 232 207 88 46 98 48 116 24 11 -16 16 -14 54 30 47 53 59 57
79 25 l14 -22 17 21 c9 12 46 35 82 51 36 16 68 35 72 41 10 16 26 14 26 -4 0
-32 20 -12 65 67 72 124 178 227 202 195 5 -6 17 -47 28 -89 23 -98 61 -167
104 -192 l34 -19 -7 66 c-5 45 -4 73 5 89 11 20 20 -34 70 -382 32 -223 68
-484 79 -580 24 -196 32 -215 78 -189 26 15 27 17 25 105 -1 50 -13 139 -27
204 -86 398 -191 1239 -158 1272 7 7 18 -4 37 -41 14 -28 49 -86 77 -128 55
-82 111 -184 120 -220 8 -30 35 -39 57 -19 17 15 20 12 63 -56 43 -71 46 -73
80 -70 32 3 39 -1 64 -35 31 -40 64 -72 77 -73 4 0 12 12 18 28 l11 27 31 -40
c17 -22 70 -80 117 -130 109 -115 152 -168 185 -230 l26 -50 -4 135 c-4 122
-7 145 -39 240 -20 58 -59 153 -88 212 -36 76 -50 117 -48 140 4 46 22 45 51
-4 47 -79 96 -111 106 -69 10 38 25 35 49 -8 22 -39 85 -101 102 -101 5 0 17
14 26 32 l16 32 46 -53 c49 -58 78 -74 104 -60 14 7 15 15 8 34 -13 35 4 32
37 -6 16 -17 54 -44 85 -60 l58 -29 14 35 c17 40 24 42 58 16 13 -11 51 -31
84 -46 55 -24 59 -25 71 -9 7 10 13 21 13 26 0 16 29 7 108 -32 91 -46 102
-48 102 -20 0 26 2 26 108 -10 50 -16 99 -30 109 -30 34 0 226 -51 267 -71 22
-10 46 -19 53 -19 16 0 -114 126 -207 200 -122 98 -190 169 -190 200 0 19 -6
31 -18 35 -11 3 -46 29 -80 58 -61 53 -79 64 -141 88 -22 8 -38 23 -47 45 -11
27 -20 33 -56 39 -58 10 -92 29 -118 65 -15 20 -30 30 -48 30 -70 0 -189 62
-229 120 -10 14 -26 20 -53 20 -48 0 -174 24 -235 44 -25 9 -89 21 -142 27
-84 10 -99 15 -119 38 -44 50 -27 54 107 30 57 -10 116 -19 131 -19 25 0 27 3
25 38 -2 36 -1 37 34 40 20 2 66 -4 103 -12 37 -9 76 -16 87 -16 28 0 35 27
14 50 -10 11 -15 23 -12 26 9 10 97 6 137 -6 42 -12 110 -13 128 -1 7 4 12 21
10 37 l-3 29 55 -5 c102 -8 183 -5 187 6 2 6 -8 25 -22 42 -14 16 -25 37 -25
46 0 17 6 17 90 -5 59 -15 135 -11 160 9 l22 18 -26 13 c-24 13 -41 39 -32 49
3 2 33 -1 68 -8 49 -10 75 -10 120 -1 32 7 60 17 64 22 3 6 -4 21 -17 35 -28
30 -20 40 22 25 41 -14 87 -14 130 0 48 17 55 26 36 47 -9 10 -17 23 -17 29 0
6 45 12 108 16 134 7 146 11 138 48 -5 25 -2 30 22 35 89 20 107 28 135 60 26
28 37 34 72 34 45 0 95 30 95 55 0 25 99 66 230 95 67 15 125 42 165 75 l30
24 -125 1 c-69 0 -181 7 -250 15 -69 8 -165 15 -214 15 -83 0 -90 2 -113 26
-16 17 -29 24 -41 19 -9 -3 -38 -11 -64 -17 -40 -10 -51 -9 -65 4 -28 24 -45
26 -82 12 -20 -8 -70 -14 -123 -14 -56 0 -102 -5 -125 -15 -25 -10 -40 -12
-48 -5 -8 7 -43 5 -111 -5 -165 -26 -199 -35 -238 -61 l-38 -26 -14 21 c-20
28 -42 26 -88 -9 -31 -24 -50 -30 -88 -30 -59 0 -100 -17 -153 -64 -45 -40
-50 -42 -59 -21 -12 31 -55 16 -116 -40 -33 -30 -64 -55 -69 -55 -5 0 -14 7
-21 15 -28 33 -105 3 -164 -64 -16 -18 -27 -20 -65 -16 -52 7 -37 17 -251
-170 -165 -144 -171 -148 -265 -217 -106 -76 -241 -152 -255 -143 -22 14 100
151 207 232 26 19 27 23 16 52 -15 40 -11 44 114 105 107 52 124 69 132 131 6
39 8 41 97 85 142 71 180 108 119 120 -47 8 -36 31 39 76 133 80 207 164 145
164 -39 0 -15 34 61 85 41 27 85 66 98 85 l24 35 -26 9 c-14 6 -26 13 -26 18
0 4 24 20 53 34 68 34 118 75 140 112 l17 31 -32 3 c-50 5 -43 20 27 58 74 38
130 82 146 111 9 17 6 21 -20 30 -34 12 -41 36 -13 46 28 11 152 92 152 100 0
5 -14 20 -32 35 l-33 26 30 13 c44 19 100 64 135 109 29 36 30 41 13 46 -10 3
-29 10 -42 15 -23 10 -23 10 -5 30 10 11 47 39 81 61 34 22 70 52 79 66 16 25
16 26 -4 40 -32 21 -27 37 18 57 40 18 100 76 100 96 0 5 -11 14 -25 19 -37
14 -30 39 18 61 50 23 67 36 90 69 22 32 21 40 -5 40 -24 0 -56 16 -48 23 3 2
23 10 44 18 21 8 48 26 59 42 19 24 20 32 10 70 -12 42 -12 42 29 78 37 32 41
40 40 78 -2 37 19 97 38 111 3 3 14 30 24 60 28 89 62 136 189 267 88 90 114
123 100 123 -39 0 -159 -71 -237 -140 -77 -69 -180 -130 -218 -130 -11 0 -48
-29 -82 -65 -54 -57 -67 -65 -99 -65 -32 0 -41 -6 -78 -55 -30 -40 -47 -54
-59 -50 -35 11 -77 -17 -162 -108 -83 -88 -87 -91 -102 -72 -21 29 -45 12 -81
-60 -55 -109 -49 -104 -83 -72 -34 33 -40 29 -72 -53 -35 -90 -44 -100 -85
-93 -51 8 -66 -11 -105 -130 -19 -56 -37 -106 -41 -111 -4 -5 -20 5 -34 23
-15 17 -30 31 -34 31 -8 0 -23 -38 -56 -140 -33 -100 -41 -112 -54 -78 -13 34
-30 44 -46 27 -21 -22 -45 -117 -45 -178 l0 -55 -33 32 c-18 18 -38 32 -44 32
-13 0 -33 -84 -33 -139 0 -39 -11 -55 -54 -76 -35 -18 -50 -63 -56 -170 -5
-104 -18 -126 -43 -76 -15 31 -35 38 -43 14 -21 -65 -25 -70 -49 -65 -13 2
-38 -1 -55 -6 -40 -14 -39 -5 9 88 48 94 93 217 81 225 -4 3 -20 0 -35 -7 -45
-20 -52 2 -22 70 30 65 69 220 60 234 -5 10 -33 7 -65 -7 -27 -11 -23 8 22 98
23 46 41 100 43 122 2 36 -1 40 -23 43 -41 6 -46 19 -18 49 33 35 54 78 63
126 6 29 4 38 -10 43 -9 4 -21 2 -28 -5 -14 -14 -47 -14 -47 0 0 7 14 51 30
99 35 102 49 180 31 180 -6 0 -20 -6 -31 -12 -34 -21 -40 6 -19 81 31 106 43
160 36 168 -4 3 -19 1 -33 -6 -15 -6 -29 -9 -32 -7 -3 3 7 32 22 65 15 33 26
77 26 101 l0 42 -36 -7 c-41 -7 -41 -12 -5 87 28 76 27 122 -1 142 -21 15 -21
18 -10 74 13 63 16 125 6 135 -3 3 -17 1 -30 -5 -13 -6 -26 -9 -28 -7 -5 6 11
189 20 216 6 21 3 22 -32 20 -34 -2 -39 1 -36 18 16 100 14 124 -12 181 -15
32 -34 66 -42 75 -12 13 -14 29 -9 62 6 37 2 55 -24 108 -65 137 -64 320 5
593 10 42 -11 30 -46 -24z"/>
<path d="M9475 3354 c-221 -60 -315 -94 -331 -119 -21 -32 -12 -69 22 -92 15
-10 45 -34 67 -54 51 -45 55 -73 56 -336 1 -152 -2 -193 -12 -193 -7 0 -17 4
-22 9 -6 5 -44 21 -85 36 -97 36 -248 44 -360 21 -251 -52 -454 -248 -521
-503 -27 -101 -29 -279 -5 -373 39 -157 148 -313 276 -399 149 -99 375 -124
546 -60 45 17 75 38 130 93 l71 71 11 -60 c18 -96 15 -95 276 -95 239 0 263 5
280 51 16 45 0 76 -58 113 -30 19 -58 40 -62 48 -5 7 -12 405 -15 883 -4 644
-8 880 -17 907 -28 82 -89 95 -247 52z m-351 -925 c52 -14 121 -80 143 -137
16 -41 18 -81 18 -332 l0 -285 -28 -57 c-48 -98 -116 -138 -234 -138 -141 0
-226 93 -268 294 -41 200 4 467 97 580 60 73 170 103 272 75z"/>
<path d="M5847 2630 c-403 -72 -668 -361 -667 -727 0 -170 57 -303 184 -429
165 -163 400 -240 655 -214 128 14 200 34 306 85 152 74 261 179 272 264 5 33
1 44 -20 65 -40 40 -84 35 -147 -16 -170 -140 -243 -172 -390 -173 -95 0 -110
3 -162 28 -74 36 -150 119 -178 193 -11 31 -19 58 -17 60 2 2 75 15 163 28
195 31 285 49 366 77 143 48 271 139 322 229 28 50 31 63 31 145 0 78 -4 98
-27 145 -47 96 -146 169 -293 217 -67 21 -103 26 -215 29 -74 1 -157 -1 -183
-6z m213 -198 c108 -53 104 -263 -6 -347 -76 -58 -272 -125 -367 -125 l-38 0
6 58 c19 170 85 317 172 385 59 47 170 61 233 29z"/>
<path d="M7350 2621 c-304 -66 -535 -269 -606 -531 -24 -91 -25 -274 0 -355
28 -94 83 -184 160 -261 197 -196 517 -268 825 -184 264 73 487 295 388 388
-43 40 -87 29 -173 -44 -199 -169 -424 -202 -580 -85 -27 20 -64 58 -81 85
-33 48 -61 121 -51 131 3 3 90 19 194 35 304 48 452 101 572 206 78 68 105
120 110 214 11 191 -95 315 -333 390 -100 32 -306 37 -425 11z m261 -194 c48
-32 69 -79 69 -156 0 -112 -42 -171 -163 -233 -66 -33 -229 -78 -283 -78 -34
0 -34 0 -34 48 0 66 33 190 71 268 36 72 108 144 161 161 61 20 141 15 179
-10z"/>
<path d="M2962 2605 c-61 -27 -64 -92 -6 -149 42 -41 44 -47 95 -263 50 -217
119 -428 195 -599 127 -290 175 -337 339 -337 106 0 149 22 211 106 48 64 159
282 191 375 10 28 20 52 23 52 3 0 15 -24 25 -52 62 -175 149 -340 218 -415
48 -52 90 -67 189 -66 199 1 264 103 466 730 127 391 135 412 189 482 81 107
21 151 -202 151 -183 -1 -229 -17 -227 -82 1 -27 11 -42 58 -84 58 -51 58 -51
62 -115 5 -84 -25 -230 -84 -406 -54 -162 -134 -348 -144 -336 -12 14 -159
410 -185 497 -53 183 -68 312 -41 338 7 7 28 26 45 41 42 37 41 89 -2 121 -27
20 -40 21 -292 21 l-263 0 -26 -24 c-43 -40 -34 -70 45 -157 31 -34 39 -52 45
-100 15 -120 -13 -338 -63 -498 -36 -117 -94 -247 -105 -240 -16 10 -82 160
-116 264 -64 196 -129 499 -118 546 3 12 21 33 39 45 43 29 57 48 57 75 0 43
-22 74 -59 84 -59 16 -519 12 -559 -5z"/>
</g>
</svg>
